<?xml version="1.0" encoding="utf-8"?>
<!-- Generator: Adobe Illustrator 24.0.1, SVG Export Plug-In . SVG Version: 6.00 Build 0)  -->
<svg version="1.1" id="Layer_1" xmlns="http://www.w3.org/2000/svg" xmlns:xlink="http://www.w3.org/1999/xlink" x="0px" y="0px"
	 viewBox="0 0 110 109" style="enable-background:new 0 0 110 109;" xml:space="preserve">
<style type="text/css">
	.st0{fill:#FFFFFF;}
</style>
<g id="Oy7Hjv.tif">
	<g>
		<g>
			<path class="st0" d="M111,110c-37.3,0-74.7,0-112,0C-1,72.7-1,35.3-1-2c37.3,0,74.7,0,112,0C111,35.3,111,72.7,111,110z
				 M110,54.2C108.2,22.4,86.4,0.1,54.5,0.3C22.8,0.6,0.3,22.9,0.3,54.6c0,31.8,23.1,54.2,54.9,54.1C87.1,108.5,108.6,85.9,110,54.2
				z"/>
			<path d="M110,54.2c-1.4,31.7-22.9,54.4-54.8,54.5C23.4,108.8,0.4,86.4,0.3,54.6c0-31.6,22.5-54,54.2-54.2
				C86.4,0.1,108.2,22.4,110,54.2z M102.1,54.4C102.1,28,81.1,7.6,54.2,7.8C28.5,7.9,7.9,28.6,7.9,54.4c0,26.2,20.8,46.8,47.2,46.8
				C81.4,101.2,102.2,80.5,102.1,54.4z"/>
			<path class="st0" d="M102.1,54.4c0.1,26.2-20.7,46.9-47.1,46.9c-26.4,0-47.2-20.6-47.2-46.8c0-25.8,20.6-46.5,46.4-46.6
				C81.1,7.6,102.1,28,102.1,54.4z M55,17.5c-21.5,0-38.8,17-38.8,38.2c0,21.1,17.4,38.4,38.8,38.4c21.4,0,38.8-17.2,38.8-38.3
				C93.8,34.7,76.5,17.5,55,17.5z"/>
			<path d="M55,17.5c21.5,0,38.8,17.2,38.8,38.3C93.7,77,76.3,94.2,54.9,94.1c-21.4,0-38.8-17.3-38.8-38.4
				C16.2,34.6,33.5,17.5,55,17.5z M54.6,78.2c3.2,0,6.3,0.2,9.5,0c7.5-0.4,12.8-5.5,13.3-12.8c0.3-3.9,0.1-7.9,0.1-11.9
				c0-1.9-0.9-2.9-3-3.1c-4.6-0.5-4.6-0.6-5.3-5.1c-1-6.7-6-11.3-12.8-11.6c-3.3-0.2-6.6-0.1-10,0c-7.9,0.2-13.3,5-13.8,12.7
				c-0.4,6.4-0.4,12.9,0,19.2c0.5,7.4,5.9,12.2,13.5,12.6C48.9,78.3,51.8,78.2,54.6,78.2z"/>
			<path class="st0" d="M54.6,78.2c-2.8,0-5.7,0.1-8.5,0c-7.6-0.4-13-5.2-13.5-12.6c-0.5-6.4-0.5-12.9,0-19.2
				c0.5-7.7,6-12.5,13.8-12.7c3.3-0.1,6.7-0.1,10,0c6.8,0.3,11.8,4.9,12.8,11.6c0.7,4.5,0.7,4.6,5.3,5.1c2.1,0.2,3,1.2,3,3.1
				c0,4,0.2,7.9-0.1,11.9c-0.5,7.4-5.8,12.4-13.3,12.8C60.9,78.3,57.7,78.2,54.6,78.2z M55.2,61.4c-2.7,0-5.3,0-8,0
				c-1.9,0-3.3,0.6-3.4,2.8c0,1.9,1.2,2.8,2.8,2.8c5.5,0.1,11,0.1,16.5,0c1.6,0,2.9-0.9,2.9-2.8c0-2.2-1.4-2.8-3.3-2.8
				C60.2,61.4,57.7,61.4,55.2,61.4z M50.4,50.2C50.4,50.2,50.4,50.2,50.4,50.2c1.2,0,2.3,0.1,3.5,0c1.7-0.2,2.9-1.1,2.9-2.8
				c0-1.7-1.1-2.8-2.8-2.8c-2.5-0.1-5-0.2-7.5,0.1c-1,0.1-2.2,1.4-2.5,2.4c-0.5,1.7,0.7,2.8,2.4,3C47.7,50.3,49.1,50.2,50.4,50.2z"
				/>
			<path d="M55.2,61.4c2.5,0,5,0,7.5,0c1.9,0,3.3,0.6,3.3,2.8c0,1.9-1.2,2.8-2.9,2.8c-5.5,0.1-11,0.1-16.5,0c-1.6,0-2.9-0.9-2.8-2.8
				c0-2.1,1.5-2.8,3.4-2.8C49.9,61.4,52.6,61.4,55.2,61.4z"/>
			<path d="M50.4,50.2c-1.3,0-2.7,0.1-4,0c-1.7-0.2-2.9-1.4-2.4-3c0.3-1,1.5-2.3,2.5-2.4c2.4-0.4,5-0.2,7.5-0.1
				c1.8,0,2.8,1.1,2.8,2.8c0,1.8-1.3,2.6-2.9,2.8C52.7,50.4,51.5,50.3,50.4,50.2C50.4,50.2,50.4,50.2,50.4,50.2z"/>
		</g>
	</g>
</g>
</svg>
