<?xml version="1.0" encoding="utf-8"?>
<!-- Generator: Adobe Illustrator 24.0.1, SVG Export Plug-In . SVG Version: 6.00 Build 0)  -->
<svg version="1.1" id="Layer_1" xmlns="http://www.w3.org/2000/svg" xmlns:xlink="http://www.w3.org/1999/xlink" x="0px" y="0px"
	 viewBox="0 0 1752 952" style="enable-background:new 0 0 1752 952;" xml:space="preserve">
<style type="text/css">
	.st0{fill:#55CE98;}
	.st1{fill:#FCFDFD;}
	.st2{fill:#FDFEFD;}
	.st3{fill:#C4BDA9;}
	.st4{fill:#B8BCB3;}
	.st5{fill:#6E9F90;}
	.st6{fill:#54CE97;}
	.st7{fill:#87A787;}
	.st8{fill:#83A48A;}
	.st9{fill:#74A371;}
	.st10{fill:#82A77D;}
	.st11{fill:#84A484;}
	.st12{fill:#86A87E;}
	.st13{fill:#6FA07B;}
	.st14{fill:#709C7F;}
	.st15{fill:#87A380;}
	.st16{fill:#629A78;}
	.st17{fill:#7CA385;}
	.st18{fill:#739C82;}
	.st19{fill:#7FA390;}
	.st20{fill:#58CF9A;}
	.st21{fill:#689E80;}
	.st22{fill:#6AA082;}
	.st23{fill:#72A185;}
	.st24{fill:#649C7E;}
	.st25{fill:#569978;}
	.st26{fill:none;}
	.st27{fill:#FFFFFF;}
	.st28{font-family:'MyriadPro-Regular';}
	.st29{font-size:77px;}
	.st30{fill:#006837;}
	.st31{font-size:73px;}
	.st32{font-size:48px;}
</style>
<path class="st0" d="M1752,542c-1.2,4.6-2.3,9.3-3.7,13.9c-7.1,22.9-22.2,37.6-45.4,44c-9.6,2.6-19.3,3.2-29.1,3.2
	C1424,603,1174.1,603,924.3,603c-2.1,0-4.3,0-6.4,0c-37.7,123.1-111.9,216.7-224.8,278.1c-79,43-164.2,60.7-253.9,53.3
	C221.9,916.6,60.6,755.4,24.1,562.3C-12.5,368.3,77.8,168.1,258.8,71c170.9-91.6,390-68.3,538.7,77.1c2.1-0.4,4-1,5.9-1
	c231.7,0,463.3-0.2,695,0.2c26.5,0,47.8,12.3,59.9,36.4c4.5,9.1,7,20,7.3,30.2c1,28.1,1.1,56.3,0.1,84.5
	c-0.9,26.5-13,47.4-37.2,59.5c-9.9,5-21.1,7.1-32.4,7.1c-163,0-326,0-489,0c-26.5,0-53,0-79.5,0c-1.8,0-3.6,0-6.2,0
	c1.6,6.9,3,13.3,4.5,20c2.5,0,4.6,0,6.8,0c250,0,500-0.1,750,0.1c19.3,0,36.6,6.3,50.4,20.5c10.2,10.5,15.6,23.4,17.8,37.7
	c0.1,0.9,0.7,1.8,1,2.7C1752,478,1752,510,1752,542z M237.9,850c0.4,0.3,0.7,0.6,1.1,1c1.6,0.9,3.2,1.7,4.8,2.6
	c19.8,12.2,40.2,23.1,61.8,31.6c15.3,6,30.9,11.2,46.4,16.8c1.7,0.6,3.3,1.2,5,1.8c7.7,1.9,15.4,4,23.2,5.7c1.7,0.4,3.7-0.6,5.4-1
	c1.1,0.6,2.6,2.2,4.2,2.4c21.6,2.8,43.2,6.6,64.9,7.9c26.8,1.6,53.7,0.3,80.4-3.5c23.1-3.3,45.8-7.9,68.1-14.7
	c42.1-12.9,81.6-31.2,118.1-56c3.9-2.7,8-5.1,12-7.6c0.3-0.2,0.5-0.5,0.8-0.7c0.4-0.4,0.9-0.8,1.3-1.2c0.8-0.3,1.7-0.7,2.5-1
	c84-63.2,140.1-145.5,167.4-247.2c2.6,0,4.8,0,6.9,0c256.3,0,512.6,0,768.9,0c4.3,0,8.7-0.3,12.9-1.1c25.2-4.5,41.2-24.6,41.8-49
	c0.6-28.6,0.6-57.3,0-86c-0.4-16.4-7.3-30.2-21-40.1c-9.7-7-20.6-9.8-32.4-9.8c-254.3,0-508.6,0-762.9,0c-2.1,0-4.3,0-6.3,0
	c-4.1-17.5-8.1-34.5-12.1-52c2.4,0,4.6,0,6.7,0c195.8,0,391.6,0,587.5,0c4.1,0,8.3-0.3,12.4-1c25.3-4.3,41.6-24.6,42.2-49.1
	c0.6-28.5,0.3-57,0-85.5c-0.1-9-2.4-17.8-7.3-25.6c-10.6-16.9-26.2-24.6-45.7-24.6c-233.8-0.1-467.6,0-701.4,0c-1,0-2.1,0.2-3,0
	c-1.8-0.6-3.8-1-5.2-2.2c-4.8-4.2-9.2-8.7-13.9-12.9c-33.4-30.3-70.5-55-111.5-73.9c-67.7-31.2-138.7-44.5-213-40.1
	c-34.9,2-69,8-102.3,18.3c-74.7,23-139.1,62.9-192.9,119.7c-27.3,28.8-50.4,60.7-69.1,95.7c-33.3,62.3-50.3,128.9-52.2,199.4
	c-0.7,25.9,1.1,51.6,5.1,77.1c7.7,49.5,23.2,96.5,46.9,140.8c30.2,56.5,70.7,104.2,121.5,143.3c9.7,7.5,20.1,14.1,30.2,21.1
	C236.6,849.4,237.3,849.8,237.9,850C238,850.1,237.9,850,237.9,850z"/>
<path class="st1" d="M236,849.1c-10.1-7-20.4-13.7-30.2-21.1c-50.8-39-91.2-86.8-121.5-143.3C60.6,640.5,45.1,593.5,37.4,544
	c-4-25.5-5.8-51.3-5.1-77.1c1.9-70.5,19-137.1,52.2-199.4c18.7-35,41.7-66.9,69.1-95.7C207.5,115,271.8,75.2,346.5,52.1
	c33.4-10.3,67.5-16.3,102.3-18.3c74.4-4.4,145.3,8.9,213,40.1c41,18.9,78.1,43.6,111.5,73.9c4.7,4.3,9.1,8.8,13.9,12.9
	c1.3,1.2,3.4,1.6,5.2,2.2c0.9,0.3,2,0,3,0c233.8,0,467.6,0,701.4,0c19.5,0,35.1,7.7,45.7,24.6c4.9,7.8,7.2,16.6,7.3,25.6
	c0.3,28.5,0.6,57,0,85.5c-0.5,24.5-16.8,44.8-42.2,49.1c-4.1,0.7-8.3,1-12.4,1c-195.8,0-391.6,0-587.5,0c-2.1,0-4.3,0-6.7,0
	c4.1,17.4,8.1,34.5,12.1,52c2,0,4.1,0,6.3,0c254.3,0,508.6,0,762.9,0c11.7,0,22.6,2.8,32.4,9.8c13.7,9.9,20.6,23.7,21,40.1
	c0.6,28.7,0.7,57.3,0,86c-0.6,24.3-16.6,44.5-41.8,49c-4.2,0.8-8.6,1.1-12.9,1.1c-256.3,0.1-512.6,0-768.9,0c-2.2,0-4.3,0-6.9,0
	c-27.4,101.7-83.4,183.9-167.4,247.2c-0.6-1.1-1.3-2.1-1.9-3.2l0.1,0.1c-0.4-1-0.7-2.1-1.1-3.1l0.1,0.1c-0.4-1-0.7-2.1-1.1-3.1
	c0,0,0.1,0.1,0.1,0.1c-0.4-1-0.7-2.1-1.1-3.1l0.1,0.1c-0.4-1-0.7-2.1-1.1-3.1c0,0,0.1,0.1,0.1,0.1c-0.3-1-0.6-2.1-0.9-3.1
	c0,0,0.1,0,0.1,0c-0.4-1-0.7-2-1.1-3.1l0.1,0c-0.7-2.3-1.4-4.7-2.1-7l0.1,0.1c-0.3-1-0.7-2.1-1-3.1l0.1,0.1c0.7-5.3,1.3-10.6,2-16
	l0,0.1c0.4-1.7,0.7-3.4,1.1-5l-0.1,0.1c0.7-2.7,1.3-5.4,2-8.1l-0.1,0.1c2.9-8.4,2.3-17,1.3-25.6c-1.2-10.4-3.5-20.7-1.3-31.2
	c0.8-4,1.4-8.1,2.1-12.2c0,0,0,0,0,0c0.3-1,0.7-2,1-3.1l0,0.1c0.4-0.7,0.7-1.3,1.1-2c0,0-0.1,0.1-0.1,0.1c0.3-0.3,0.7-0.7,1-1l0,0
	c0.3-0.3,0.7-0.7,1-1l0,0.1c1.3-1,2.6-2.1,4-3.1l-0.1,0c0.4-0.3,0.7-0.7,1.1-1l0,0.1l0.5,0l0.4-0.3c0.4-0.6,0.9-1.1,1.3-1.7l0-0.1
	c0.3-0.3,0.7-0.7,1-1l0,0c0.3-0.3,0.7-0.7,1-1l-0.1-0.2l0.1,0.2c0.3-0.3,0.7-0.7,1-1l-0.1-0.2l0.1,0.2c0.3-0.3,0.7-0.7,1-1L749,688
	l0.2,0.2c0.3-0.3,0.6-0.7,1-1L750,687l0.1,0.2c0.3-0.4,0.7-0.7,1-1.1l0,0c0.3-0.3,0.7-0.7,1-1l0,0c0.3-0.4,0.7-0.7,1-1.1l0,0.1
	c0.7-1,1.4-1.9,2.1-2.9c0,0,0,0,0,0c0.3-0.3,0.7-0.7,1-1c0.3-0.4,0.6-0.7,1-1.1c0,0,0,0,0,0c0.3-0.4,0.7-0.7,1-1.1c0,0,0,0.1,0,0.1
	c0.7-1,1.4-2,2.1-3c0,0-0.1,0-0.1,0c0.3-0.4,0.7-0.7,1-1.1c0,0-0.1,0-0.1,0c0.3-0.4,0.7-0.7,1-1.1l0,0.1c0.4-0.6,0.8-1.3,1.2-1.9
	l-0.1,0c0.3-0.4,0.6-0.7,1-1.1l0,0.1c0.7-1,1.4-2,2-3c0,0,0,0,0,0c0.7-1,1.3-2,2-3l0,0c0.7-1,1.3-2,2-3l-0.1,0
	c0.3-0.4,0.6-0.7,1-1.1l0,0c0.4-0.6,0.8-1.3,1.1-1.9l-0.1,0c0.3-0.4,0.6-0.7,1-1.1l0,0.1c0.7-1,1.3-2,2-3.1c0,0,0,0,0,0
	c0.4-0.7,0.7-1.3,1.1-2l-0.1,0c0.3-0.4,0.7-0.7,1-1.1l0,0c0.4-0.7,0.7-1.3,1.1-2l-0.1,0c0.3-0.4,0.6-0.7,1-1.1l0,0.1
	c0.4-0.7,0.7-1.4,1.1-2l0,0.1c0.4-0.7,0.7-1.4,1.1-2l0,0c0.4-0.7,0.7-1.3,1.1-2l0,0c0.3-0.7,0.7-1.3,1-2l0,0c0.4-0.7,0.7-1.3,1.1-2
	l0,0c0.3-0.7,0.7-1.3,1-2l0,0c0.4-0.7,0.7-1.3,1.1-2l0,0c0.3-0.7,0.7-1.4,1-2l0,0c0.3-0.7,0.7-1.4,1-2.1l0,0c0.7-1.7,1.4-3.4,2-5
	l0,0c0.7-1.7,1.3-3.4,2-5.1l0,0.1c0.4-1,0.7-2,1.1-3l0,0c0.3-1,0.7-2,1-3.1l0,0.1c0.7-2.4,1.4-4.7,2-7.1l0,0.1
	c0.4-1.7,0.7-3.4,1.1-5.1c0,0,0,0.1,0,0.1c0.3-0.7,0.9-1.4,0.9-2.1c0.6-10.4,1.6-20.7,1.6-31.1c0-5.3-1.6-10.6-2.5-15.9l0,0.1
	c-0.8-5.8-1.6-11.6-2.5-17.4c-0.1-0.6-1.1-1.1-1.6-1.6c0-4.3,0-8.7,0-13c0.7-3,1.4-6,2.1-9l0,0.1c0.4-2,0.7-4,1.1-6l-0.1,0
	c0.4-1.7,0.7-3.4,1.1-5l-0.1,0c0.7-3,1.4-6,2-9.1l0,0.1c0.3-0.9,0.9-1.8,1-2.7c0.3-16.8,0.6-33.5,0.6-50.3c0-2.7-1-5.4-1.6-8.1
	l0,0.1c-0.3-1.7-0.7-3.4-1-5.1c0,0,0,0.1,0,0.1c-0.3-1.4-0.7-2.7-1-4.1l0,0.1c-0.4-1.3-0.7-2.7-1.1-4l0,0.1c-0.7-1.7-1.3-3.4-2-5.1
	l0,0.1c-0.4-1-0.7-2-1.1-3l0,0.1c-0.3-0.7-0.7-1.4-1-2.1l0,0.1c-0.3-0.7-0.7-1.4-1-2.1l0,0.1c-0.3-0.7-0.7-1.4-1-2.1l0,0.1
	c-0.4-0.7-0.7-1.4-1.1-2c0,0,0,0,0,0c-0.3-0.4-0.7-0.7-1-1.1l0.1,0c-0.3-0.7-0.7-1.4-1-2l0,0c-0.3-0.4-0.7-0.7-1-1.1l0.1,0
	c-0.4-0.7-0.7-1.3-1.1-2c0,0,0,0,0,0c-0.3-0.4-0.7-0.7-1-1.1c0,0,0,0,0,0c-0.3-0.3-0.7-0.7-1-1l0.1,0c-0.7-1-1.4-2-2.1-3l0,0.1
	c-0.3-0.4-0.7-0.7-1-1.1l0.1,0c-0.3-0.4-0.7-0.7-1-1.1l0,0c-0.3-0.3-0.7-0.7-1-1l0,0c-0.4-0.3-0.7-0.7-1.1-1l0,0
	c-0.4-0.3-0.7-0.7-1.1-1l0,0c-0.4-0.3-0.7-0.7-1.1-1l0,0c-0.7-0.4-1.3-0.7-2-1.1l0,0c-0.3-0.3-0.7-0.7-1-1l0,0
	c-0.4-0.3-0.7-0.7-1.1-1l0,0c-0.7-0.3-1.4-0.7-2-1l0,0c-1.3-0.7-2.7-1.3-4-2l0,0c-0.7-0.3-1.4-0.7-2-1c0,0,0,0,0,0
	c-0.7-0.3-1.4-0.7-2-1c0,0,0,0,0,0c-1.7-0.7-3.4-1.3-5.1-2l0,0c-1.3-0.4-2.7-0.7-4-1.1l0,0c-2.8-0.7-5.6-1.8-8.4-1.9
	c-6.6-0.3-13.1-0.1-19.7-0.1l0,0c-1-0.3-2-0.7-3-1l0,0c-1-0.3-2-0.7-3-1l0,0c-1-0.3-2-0.7-3-1l0,0c-1.7-0.3-3.4-0.9-5.2-1
	c-7.3-0.1-14.6,0-21.9,0l0,0c-2-0.3-4-0.7-6-1c0,0,0,0,0,0c-1.9-0.3-3.8-0.9-5.7-0.9c-9.4-0.1-18.9-0.1-28.3-0.2l0,0
	c-0.7-0.4-1.3-0.7-2-1.1c0,0,0.1,0.1,0.1,0.1c-0.4-0.3-0.8-0.6-1.1-0.9c-8.8,0.6-17.4-1.4-26-2.7c-6.6-1-13.4-5.9-20.1-0.3
	c-0.2,0.2-0.7,0.1-1,0.1c-5.5-0.5-11-0.5-16.3-1.7c-15.1-3.4-25.1-13.2-31.3-27c-8.6-19.1-16-38.8-18.8-59.7
	c-1.3-9.7-2.9-19.7-2-29.3c1.1-10.7-0.3-20.4-4.7-30c-1.7-3.7-1.9-8-2.7-12c-0.9-4.2-1.7-8.4-2.5-12.6c-0.2-0.3-0.3-0.6-0.5-0.9
	l0.1,0.1c-2.7-6.3-5.4-12.5-8.1-18.8c-1.8-3.8-3.6-7.5-5.4-11.3c-0.2-0.3-0.4-0.6-0.6-1c0,0,0.1,0.1,0.1,0.1
	c-0.6-1.1-1.3-2.1-1.9-3.2l0,0.1c-0.4-0.7-0.7-1.4-1.1-2l0,0c-2-3-4-6-6-9.1l0,0c-0.3-0.4-0.7-0.7-1-1.1l0.1,0
	c-0.4-0.7-0.8-1.3-1.1-2l0,0.1c-1-1.4-2-2.7-3-4.1l0,0.1c-0.7-1-1.4-2-2.1-3c0,0,0,0.1,0,0.1c-0.3-0.4-0.7-0.7-1-1.1
	c0,0,0.1,0,0.1,0c-0.7-0.8-1.4-1.7-2.1-2.5c-8.9-9-17.9-17.8-30.2-22.2c-5.6-2-11-4.7-16.6-6.7c-4.2-1.4-8.6-3-12.9-3.1
	c-8.5-0.1-17.1,0.5-25.6,1.5c-14,1.8-27.2,6-38.9,14.4c-0.3,0.2-0.6,0.3-0.9,0.5c0,0,0.1-0.1,0.1-0.1c-1,0.7-2.1,1.3-3.1,2l0.1,0
	c-2.3,1.7-4.7,3.4-7,5.1c0,0,0.1,0,0.1,0c-0.4,0.3-0.7,0.7-1.1,1c0,0,0-0.1,0-0.1c-0.7,0.7-1.4,1.3-2.1,2l0.1,0c-1,0.7-2,1.4-3,2.1
	c0,0,0.1,0,0.1,0c-0.4,0.3-0.7,0.7-1.1,1c0,0,0.1-0.1,0.1-0.1c-0.4,0.4-0.7,0.7-1.1,1.1c0,0,0.1-0.1,0.1-0.1c-0.5,0.4-1,0.7-1.4,1.1
	c-2.9,2.9-5.7,5.7-8.6,8.6c-0.4,0.5-0.7,0.9-1.1,1.4l0.1-0.1c-0.3,0.4-0.7,0.7-1,1.1l0-0.1c-2,2.7-4,5.4-6.1,8l0-0.1
	c-2,2.7-4,5.4-6,8.1l0-0.1c-2.2,4.3-4.4,8.7-6.5,13c-0.8,3.7-1.7,7.4-2.5,11.1c-1.5,6.3,0.7,11.8,3.9,17.1c0,0,0,0,0,0
	c0.4,1.3,0.7,2.7,1.1,4c0,0,0-0.1,0-0.1c0.1,8.7,0.2,17.3,0.3,26c0.2,1.4,0.5,2.7,0.7,4.1l0-0.1c0.1,1.3-0.1,2.7,0.2,3.9
	c2.6,10,5.2,20,7.9,30c1.1,4.7,2.3,9.4,3.4,14.1c0.8,1.4,1.6,2.7,2.5,4.1l0,0c1.3,1.4,2.7,2.7,4,4.1l0-0.1c0.4,0.3,0.7,0.7,1.1,1
	l-0.1-0.1c0.3,0.4,0.7,0.7,1,1.1l-0.1-0.1c0.4,0.4,0.7,0.7,1.1,1.1l-0.1,0c0.7,1,1.4,2,2.2,2.9l0,0c1,2,2,4,3,6l0-0.1
	c0,2.7,0.1,5.3,0.1,8l0,0c-2.3,2.3-4.7,4.7-7,7l0,0c-0.3,0.7-0.7,1.3-1,2l0,0c-0.3,0.3-0.7,0.7-1,1c0,0,0,0,0,0
	c-0.3,0.3-0.7,0.7-1,1c0,0,0,0,0,0c-0.3,0.3-0.7,0.7-1,1c0,0,0,0,0,0c-1.3,0.7-2.7,1.4-4,2c0,0,0,0,0,0c-1.3,0.4-2.7,0.7-4,1.1
	c0,0,0,0,0,0c-0.7,0.3-1.4,0.6-2.1,0.9c0,0,0,0,0,0c-0.7,0.3-1.4,0.7-2,1l0,0c-0.4,0.3-0.7,0.7-1.1,1l0,0c-0.3,0.3-0.7,0.7-1,1l0,0
	c-0.5,0.4-1.1,0.7-1.6,1.1c-0.1,0.3-0.3,0.6-0.4,0.9c0,0,0,0,0,0c-0.3,0.3-0.7,0.7-1,1l0,0c-0.3,0.7-0.7,1.4-1,2c0,0,0-0.1,0-0.1
	c-0.3,0.3-0.7,0.7-1,1l0,0c-0.7,0.4-1.3,0.7-2,1.1c0,0,0,0,0,0c-0.7,0.3-1.3,0.7-2,1l0,0c-0.7,0.3-1.3,0.6-2,1l0,0
	c-0.7,0.3-1.3,0.6-2,1l0,0c-0.7,0.3-1.3,0.7-2,1l0,0c-0.4,0.3-0.7,0.7-1.1,1l0,0c-0.4,0.3-0.7,0.7-1.1,1l0,0c-0.4,0.3-0.7,0.7-1.1,1
	l0-0.1c-0.7,0.7-1.3,1.4-2,2.1c0,0,0,0,0,0c-0.7,1-1.4,2-2,3c0,0,0,0,0,0c-0.7,1.3-1.4,2.7-2,4l0,0c-0.2,2-1.2,4.4-0.5,6
	c2.5,5.5,5.6,10.7,8.5,16.1l0,0c1.3,1.7,2.7,3.4,4,5.1l0,0c1.3,1.7,2.7,3.3,4,5l0-0.1c0.3,0.4,0.7,0.7,1,1.1l-0.1,0
	c0.7,0.7,1.3,1.4,2,2.1l0-0.1c1.7,1.8,3.4,3.7,5.1,5.5c2.5,1.8,5.9,3.1,7.3,5.6c7.4,13,18.7,22.7,28.4,33.8c0.8,0.9,1.7,1.9,2.7,3
	c-0.9,0.6-1.3,1.1-1.9,1.3c-17.5,8.7-34.8,18.1-52.7,26c-19.9,8.8-32.5,23.3-38.5,43.9c-2.1,7.3-3.9,14.7-5.9,22.1
	c-4.1,15.4-8,30.8-8.4,46.8c-0.3,1.9-0.9,3.9-0.9,5.8c0.3,11.4,0.7,22.7,1,34.1c0.3,8,0.6,16,0.8,24.1c-0.4,2.3-0.7,4.6-1.1,7l0-0.1
	c-0.3,1.4-0.7,2.7-1,4.1c0,0,0-0.1,0-0.1c-0.7,2.4-1.4,4.7-2,7.1c0,0,0-0.1,0-0.1c-0.3,1.4-0.7,2.7-1,4.1l0,0c-0.3,1-0.7,2.1-1,3.1
	l0-0.1c-0.7,4.4-1.4,8.7-2,13.1c0,0,0-0.1,0-0.1c-0.3,3.4-0.7,6.7-1,10.1l0-0.1c-0.3,1.8-0.8,3.5-0.9,5.3c-0.1,9.3-0.2,18.6-0.1,28
	c0.1,4.3,0.6,8.6,1,12.8l0-0.1c0.1,3.3,0.1,6.7,0.2,10c0,17-0.1,34.1-0.1,51.1c-1.1,12.2-2.2,24.3-3.3,36.5
	C236.5,834.8,236.2,841.9,236,849.1z M879,333c2.3,0,4.7,0,7,0c203.7,0,407.3,0,611,0c22.2,0,37-14.8,37-36.9c0-26.7,0-53.3,0-80
	c0-22.2-14.8-37-36.9-37c-20.3,0-40.7,0-61,0c-216,0-432,0-648,0.1c-3.7,0-6.4-1-9.2-3.6c-9.5-9-19.2-17.9-29.2-26.4
	c-33.3-28.4-70.4-50.7-110.7-67.5c-33.9-14.1-68.9-23.8-105.4-28.7c-37.7-5-75.4-5.1-113.1-0.4c-31.2,3.9-61.6,11.5-91.2,22.5
	c-25.6,9.5-50.1,21.2-73.5,35.3c-23.3,14-45,30.2-65.3,48.4c-19.2,17.3-36.8,36.1-52.7,56.5c-22.7,29.3-41.3,61.1-55.8,95.2
	c-13.7,32.4-23.7,65.9-28.9,100.7c-5,33.6-6.2,67.3-3.4,101.1c2.6,31.3,8.4,61.9,18,91.8c9.5,29.3,21.7,57.3,37,84.1
	c17.9,31.4,39.5,60,64.7,85.8c12.7,13.1,27,24.7,40.7,36.8c3.3,2.9,6.9,5.3,11.5,8.8c0.7-9.7,1.7-17.9,1.8-26.1
	c0.3-21.7,0.7-43.3,0-65c-1-28.4-1.3-56.6,7.3-84.1c3.1-9.7,3-19.8,1.7-29.7c-2.6-19.5-2.6-39,1.2-58.2c4.3-21.8,9.8-43.5,15.6-64.9
	c3.8-13.8,12.6-24.8,23.6-33.9c8.9-7.5,19.4-12.2,30-16.7c8.8-3.8,17.1-8.6,26-13.1c-2.2-2.7-3.9-4.8-5.6-6.8
	c-4-5.1-7.3-11.1-12.2-15.1c-10.5-8.6-18.8-18.8-26.3-29.9c-5.1-7.6-9.5-16.1-8.7-25.5c1.2-12.9,8.2-22.5,19.4-29.2
	c3.2-1.9,5.9-4.6,8.9-6.7c3.7-2.5,7.2-5.6,11.3-7.1c3.7-1.4,6.5-3.1,8-6.7c-7.6-7.1-11.4-13.4-13.6-23.8c-1.8-8.1-2.1-16.7-4.9-24.4
	c-5-13.8-6.9-27.7-6.2-42.2c0.1-2.9,0.1-6.2-1-8.8c-6.9-16-4.4-31.4,3.2-46.2c12-23.4,30.3-41.2,51.8-55.8
	c22.6-15.3,48.2-20.9,74.7-17.8c31.1,3.6,56.7,18.4,76.2,43.7c14.3,18.6,24.3,39.2,31.6,61.3c2.8,8.6,3.8,17.7,7.1,26.3
	c3.2,8.4,4.8,17.5,3.3,26.5c-1.8,11.1,0.4,21.9,1.6,32.7c2.1,18.8,10,35.8,17,53c5.5,13.4,18.2,22.8,36.1,17.6
	c2.9-0.8,6.4-0.8,9.2,0c11,3.1,22.1,4.3,33.5,4.1c2.7-0.1,5.5,1,8.3,1.6c2.7,0.6,5.4,1.5,8.1,1.6c9.5,0.5,18.9,0.7,28.4,1
	c4.8,0.2,9.6,0.4,14.4,0.7c5.9,0.4,12.1,0.1,17.7,1.7c7,1.9,13.9,2.3,21.1,2.5c18.4,0.5,35,6.7,48.3,19.7
	c14.3,13.9,22.7,31.4,25,51.1c1.9,16.1,1.9,32.5,2.1,48.8c0.1,7.2-1,14.6-2.6,21.7c-4.2,18.4-5.2,36.6-0.8,55.3
	c4,16.6,3,33.6,0,50.6c-5.7,31.8-21.6,58.5-41.1,83.3c-6.1,7.8-13.7,14.5-20.4,21.9c-1.7,1.9-3.5,4.4-3.7,6.7
	c-0.6,7.1-0.8,14.2-0.5,21.3c0.3,6.3,1.7,12.5,2.2,18.8c0.9,10.8-2,21.1-4.2,31.5c-1.4,6.4-4.2,13.1,0.2,20.2
	c75-62.5,123.6-141.2,146.9-236c2.4,0,4.5,0,6.7,0c260,0,520,0,780,0c1.8,0,3.7,0,5.5,0c19.6-0.3,34.9-15.4,35-35
	c0.1-28,0.2-56-0.1-84c-0.1-4.9-1.1-10.1-3.2-14.5c-6.7-14.3-18.5-20.6-34.1-20.6c-258.8,0-517.6,0-776.5,0c-2.3,0-4.6,0-6.9,0
	c-3.7-23.7-8.4-46.6-16-68.9C881.5,343.2,880.4,338,879,333C879.1,332.9,879,333,879,333z"/>
<path class="st2" d="M733.3,837c-4,2.5-8.1,5-12,7.6c-36.5,24.7-76,43.1-118.1,56c-22.3,6.8-45,11.4-68.1,14.7
	c-26.7,3.8-53.6,5.1-80.4,3.5c-21.7-1.3-43.3-5-64.9-7.9c-1.7-0.2-3.2-1.8-4.2-2.4c-1.6,0.3-3.7,1.3-5.4,1
	c-7.8-1.7-15.4-3.7-23.2-5.7c-1-4-2-7.9-3.1-11.9c0,0,0,0.1,0,0.1c-0.7-2.1-1.4-4.2-2.1-6.3c0,0,0-0.2,0-0.2c0.3-0.5,0.7-1,1-1.5
	c-0.2-0.6-0.3-1.2-0.5-1.7c-0.4-1.1-0.8-2.2-1.1-3.3c0-0.6,0-1.2,0.1-1.8c-0.4-1.7-0.7-3.5-1.1-5.2c0-0.9-0.1-1.9-0.1-2.8
	c-0.3-3.1-0.6-6.1-0.9-9.2c-0.1-1.6-0.1-3.2-0.2-4.8c-0.1-3.4-0.2-6.7-0.3-10.1c-0.2-1.6-0.5-3.3-0.7-4.9c-0.1-2.7-0.1-5.5-0.2-8.2
	c-0.3-1.6-0.5-3.2-0.8-4.8c-0.1-4.7-0.2-9.5-0.3-14.2c0.6-2.4,1.1-4.8,1.8-7.1c4.9-16.6,9-33.4,9.6-50.9c0.2-0.5,0.3-1,0.5-1.5
	c-0.3-0.8-0.6-1.5-0.9-2.3c0.4-5.4,0.8-10.8,1.3-16.2c0.2-0.8,0.4-1.7,0.6-2.5c0.1-11.8,1-23.4,4.3-34.9c2.5-8.4,3.8-17,5.7-25.6
	c0.1-1.8,0.3-3.7,0.5-5.8c5.4,3.1,3.5,7.7,3.4,11.9c-0.2,0.5-0.3,1-0.5,1.5c-0.3,3.9-0.6,7.9-0.8,11.8c-0.5,9.9-1.3,19.7,1.6,29.4
	c2.1,3.1,4.1,6.1,6.2,9.2c0.6,2,1.2,4,1.8,6l0,0c0.4,0.4,0.7,0.7,1.1,1.1L383,737c0.3,0.4,0.7,0.7,1,1.1l-0.1,0
	c2.4,6.9,4.7,13.8,7.1,20.7c-0.3,5.9-0.7,11.8-1,17.7c-0.2,2.9-0.5,5.9-0.5,8.8c0.1,9,0.4,18.1,0.6,27.1c0.2,1.2,0.4,2.4,0.6,3.5
	c0.2,5,0.3,10.1,0.5,15.1c1.3,9,2.6,17.9,3.9,26.9c1.5,7.1,3,14.2,4.5,21.3c1,4.7,0.7,8.8-3.3,12.2c-1.4,1.2-2.2,3-3.3,4.6
	c-0.2,0.1-0.4,0.2-0.3,0.1c-0.1,0.1,0.1-0.1,0.3-0.2c0.4-0.1,0.7-0.1,1.1-0.2c26.1,5.5,52.7,7.7,79.3,7.9
	c24.3,0.2,48.5-1.9,72.6-5.7c38.5-6.2,75.1-18.2,110.3-34.5c26.5-12.3,51.3-27.4,74.8-44.7c0.3,0.1,0.7,0.2,1,0.3
	c0,0-0.1-0.1-0.1-0.1c0.4,1,0.7,2.1,1.1,3.1l-0.1-0.1c0.4,1,0.7,2.1,1.1,3.1c0,0-0.1-0.1-0.1-0.1c0.4,1,0.7,2.1,1.1,3.1l-0.1-0.1
	c0.4,1,0.7,2.1,1.1,3.1L736,831c-0.2,1.4-0.4,2.8-0.6,4.2c-0.4,0.4-0.9,0.8-1.3,1.2C733.8,836.6,733.5,836.8,733.3,837z
	 M383.8,881.3c-9.8-40.5-11.1-81.7-9.1-123.2c-0.8,1.5-1.3,3.1-1.4,4.6c-1,14-4.1,27.6-8,41c-1.5,5.3-2.4,11.1-2.2,16.7
	c0.4,14,1.2,27.9,2.4,41.8c0.8,9.5,2.7,19,4.1,28.2c2.7,0.6,4.3,0.9,5.7,1.2C378.1,888.2,380.7,885,383.8,881.3z"/>
<path class="st1" d="M352,885.5l0,0.2c0.7,2.1,1.4,4.2,2.1,6.3l0-0.1c0.3,2.3,0.4,4.5,0.8,6.8c0.4,2.4-0.4,3.5-2.8,3.2
	c-15.5-5.6-31.1-10.8-46.4-16.8c-21.6-8.5-42.1-19.4-61.8-31.6c-1.5-0.9-3.2-1.7-4.8-2.6c-0.4-0.3-0.7-0.6-1.1-1l0,0
	c-0.3-6.4-0.6-12.9-0.9-19.3c0.6,0.3,1.3,0.4,1.8,0.8c18.9,12.4,38.1,24.2,59,32.9C315.8,871.9,334,878.5,352,885.5z"/>
<path class="st3" d="M237.1,830.8c0.3,6.4,0.6,12.9,0.9,19.3c-0.7-0.3-1.3-0.7-2-1c0.2-7.2,0.5-14.3,0.7-21.5
	C236.8,828.7,237,829.7,237.1,830.8z"/>
<path class="st4" d="M352,902c2.5,0.3,3.2-0.8,2.8-3.2c-0.4-2.2-0.6-4.5-0.8-6.8c1,4,2,7.9,3.1,11.9
	C355.4,903.2,353.7,902.6,352,902z"/>
<path class="st5" d="M735.3,835.1c0.2-1.4,0.4-2.8,0.6-4.2c0.6,1.1,1.3,2.1,1.9,3.2C737,834.5,736.2,834.8,735.3,835.1z"/>
<path class="st5" d="M733.3,837c0.3-0.2,0.5-0.5,0.8-0.7C733.8,836.6,733.5,836.8,733.3,837z"/>
<path class="st3" d="M237.9,850c0.4,0.3,0.7,0.6,1.1,1C238.7,850.7,238.3,850.4,237.9,850z"/>
<path class="st6" d="M879.1,332.9c1.4,5.1,2.5,10.2,4.2,15.2c7.6,22.3,12.2,45.2,16,68.9c2.3,0,4.6,0,6.9,0c258.8,0,517.6,0,776.5,0
	c15.6,0,27.5,6.3,34.1,20.6c2,4.4,3.1,9.6,3.2,14.5c0.3,28,0.2,56,0.1,84c-0.1,19.5-15.4,34.7-35,35c-1.8,0-3.7,0-5.5,0
	c-260,0-520,0-780,0c-2.1,0-4.3,0-6.7,0c-23.3,94.8-71.9,173.5-146.9,236c-4.4-7.2-1.6-13.8-0.2-20.2c2.2-10.4,5.1-20.7,4.2-31.5
	c-0.5-6.3-1.9-12.5-2.2-18.8c-0.3-7.1-0.1-14.3,0.5-21.3c0.2-2.3,2-4.8,3.7-6.7c6.7-7.4,14.3-14,20.4-21.9
	c19.5-24.9,35.4-51.5,41.1-83.3c3-16.9,3.9-33.9,0-50.6c-4.4-18.7-3.4-36.9,0.8-55.3c1.6-7.1,2.7-14.5,2.6-21.7
	c-0.2-16.3-0.2-32.7-2.1-48.8c-2.3-19.6-10.7-37.1-25-51.1c-13.3-13-29.9-19.2-48.3-19.7c-7.2-0.2-14.1-0.5-21.1-2.5
	c-5.6-1.5-11.8-1.3-17.7-1.7c-4.8-0.3-9.6-0.5-14.4-0.7c-9.5-0.3-18.9-0.5-28.4-1c-2.7-0.1-5.4-1.1-8.1-1.6
	c-2.8-0.6-5.5-1.7-8.3-1.6c-11.4,0.2-22.5-1-33.5-4.1c-2.9-0.8-6.4-0.8-9.2,0c-17.8,5.2-30.6-4.2-36.1-17.6
	c-7.1-17.2-14.9-34.2-17-53c-1.2-10.9-3.4-21.6-1.6-32.7c1.5-9-0.1-18.1-3.3-26.5c-3.3-8.6-4.3-17.7-7.1-26.3
	c-7.3-22-17.3-42.7-31.6-61.3c-19.5-25.3-45.1-40.2-76.2-43.7c-26.5-3-52.1,2.6-74.7,17.8c-21.5,14.6-39.8,32.4-51.8,55.8
	c-7.6,14.8-10,30.2-3.2,46.2c1.1,2.6,1.2,5.9,1,8.8c-0.6,14.5,1.2,28.4,6.2,42.2c2.8,7.7,3.1,16.3,4.9,24.4
	c2.3,10.4,6.1,16.7,13.6,23.8c-1.5,3.6-4.2,5.3-8,6.7c-4.1,1.5-7.6,4.5-11.3,7.1c-3.1,2.1-5.8,4.8-8.9,6.7
	c-11.2,6.7-18.2,16.3-19.4,29.2c-0.9,9.4,3.5,17.9,8.7,25.5c7.4,11.1,15.8,21.3,26.3,29.9c4.9,4,8.2,10,12.2,15.1
	c1.6,2.1,3.3,4.1,5.6,6.8c-8.9,4.6-17.2,9.4-26,13.1c-10.6,4.5-21,9.2-30,16.7c-11,9.2-19.8,20.1-23.6,33.9
	c-5.8,21.5-11.3,43.1-15.6,64.9c-3.8,19.2-3.8,38.7-1.2,58.2c1.3,9.9,1.3,20-1.7,29.7c-8.7,27.5-8.3,55.7-7.3,84.1
	c0.7,21.6,0.3,43.3,0,65c-0.1,8.2-1.1,16.5-1.8,26.1c-4.6-3.5-8.2-5.9-11.5-8.8c-13.7-12.1-27.9-23.7-40.7-36.8
	c-25.2-25.8-46.8-54.4-64.7-85.8c-15.3-26.8-27.5-54.8-37-84.1c-9.7-29.9-15.4-60.5-18-91.8c-2.8-33.8-1.6-67.5,3.4-101.1
	c5.2-34.8,15.2-68.3,28.9-100.7c14.5-34.2,33.1-65.9,55.8-95.2c15.8-20.4,33.4-39.2,52.7-56.5c20.2-18.2,42-34.4,65.3-48.4
	c23.3-14.1,47.9-25.7,73.5-35.3c29.6-11,60-18.6,91.2-22.5c37.7-4.7,75.3-4.6,113.1,0.4c36.5,4.8,71.6,14.6,105.4,28.7
	c40.3,16.8,77.4,39.1,110.7,67.5c10,8.5,19.7,17.4,29.2,26.4c2.8,2.6,5.5,3.6,9.2,3.6c216-0.1,432-0.1,648-0.1c20.3,0,40.7,0,61,0
	c22.1,0,36.9,14.9,36.9,37c0,26.7,0,53.3,0,80c0,22.1-14.9,36.9-37,36.9c-203.7,0-407.3,0-611,0C883.6,333,881.3,333,879.1,332.9
	c-0.2-0.1-0.4-0.4-0.2-0.1C878.6,332.7,878.8,332.8,879.1,332.9z"/>
<path class="st6" d="M237.1,830.8c-0.1-1.1-0.2-2.1-0.4-3.2c1.1-12.2,2.2-24.3,3.3-36.5c0.3-1.4,1-2.8,1-4.2c0-15.7,0-31.3,0-47
	c-0.3-3.3-0.6-6.7-1-10c0,0,0,0.1,0,0.1c0-15.4,0-30.7,0-46.1l0,0.1c0.3-3.4,0.7-6.7,1-10.1c0,0,0,0.1,0,0.1c0.7-4.4,1.4-8.7,2-13.1
	c0,0,0,0.1,0,0.1c0.3-1,0.7-2.1,1-3.1c0,0,0,0,0,0c0.3-1.4,0.7-2.7,1-4.1c0,0,0,0.1,0,0.1c0.7-2.4,1.4-4.7,2-7.1l0,0.1
	c0.3-1.4,0.7-2.7,1-4.1l0,0.1c0.4-2.3,0.7-4.6,1.1-7c-0.3-8-0.6-16-0.8-24.1c-0.1-3.7-0.1-7.4-0.1-11c0-9.6,0-19.2,0-28.8
	c0.4-16,4.3-31.4,8.4-46.8c2-7.4,3.8-14.8,5.9-22.1c6-20.6,18.6-35.1,38.5-43.9c17.9-8,35.2-17.3,52.7-26c0.6-0.3,1-0.7,1.9-1.3
	c-1-1.1-1.8-2-2.7-3c-9.7-11.1-20.9-20.8-28.4-33.8c-1.4-2.5-4.8-3.8-7.3-5.6c-1.7-1.8-3.4-3.7-5.1-5.5l0,0.1
	c-0.7-0.7-1.3-1.4-2-2.1l0.1,0c-0.3-0.4-0.7-0.7-1-1.1l0,0.1c-1.3-1.7-2.7-3.3-4-5l0,0c-1.3-1.7-2.7-3.4-4-5.1l0,0
	c-1-2.2-2-4.4-3-6.6c-2.3-5-5.5-9.6-5-15.5c0,0,0,0,0,0c0.7-1.3,1.4-2.7,2-4c0,0,0,0,0,0c0.7-1,1.4-2,2-3c0,0,0,0,0,0
	c0.7-0.7,1.3-1.4,2-2.1l0,0.1c0.4-0.3,0.7-0.7,1.1-1l0,0c0.4-0.3,0.7-0.7,1.1-1l0,0c0.4-0.3,0.7-0.7,1.1-1l0,0c0.7-0.3,1.3-0.7,2-1
	l0,0c0.7-0.3,1.3-0.6,2-1l0,0c0.7-0.3,1.3-0.6,2-1l0,0c0.7-0.3,1.3-0.7,2-1l0,0c0.7-0.4,1.3-0.7,2-1.1l0,0c0.3-0.3,0.7-0.7,1-1
	l0,0.1c0.3-0.7,0.7-1.4,1-2l0,0c0.3-0.3,0.7-0.7,1-1c0,0,0,0,0,0c0.3-0.3,0.7-0.5,1-0.8c0.3-0.4,0.7-0.8,1-1.2l0,0
	c0.3-0.3,0.7-0.7,1-1l0,0c0.4-0.3,0.7-0.7,1.1-1c0,0,0,0,0,0c0.7-0.3,1.4-0.7,2-1c0,0,0,0,0,0c0.7-0.3,1.4-0.6,2.1-0.9c0,0,0,0,0,0
	c1.3-0.4,2.7-0.7,4-1.1c0,0,0,0,0,0c1.3-0.7,2.7-1.4,4-2c0,0,0,0,0,0c0.3-0.3,0.7-0.7,1-1l0,0c0.3-0.3,0.7-0.7,1-1l0,0
	c0.3-0.3,0.7-0.7,1-1l0,0c0.3-0.7,0.7-1.3,1-2c0,0,0,0,0,0c2.3-2.3,4.7-4.7,7-7l0,0c0-2.7-0.1-5.3-0.1-8l0,0.1c0-2.5,0.4-5.2-3-6
	l0,0c-0.7-1-1.4-2-2.2-2.9l0.1,0c-0.4-0.4-0.7-0.7-1.1-1.1l0.1,0.1c-0.3-0.4-0.7-0.7-1-1.1l0.1,0.1c-0.4-0.3-0.7-0.7-1.1-1l0,0.1
	c-1.3-1.4-2.7-2.7-4-4.1l0,0c-0.8-1.4-1.6-2.7-2.5-4.1c-1.1-4.7-2.3-9.4-3.4-14.1c0.5-12.1-4.1-22.9-8.1-33.9l0,0.1
	c0-1.4,0-2.7,0-4.1c0-7.3,0.1-14.6,0-21.9c0-1.4-0.7-2.7-1-4.1l0,0.1c-0.4-1.3-0.7-2.7-1.1-4l0,0c-1.3-5.7-2.6-11.4-3.9-17.1
	c0.8-3.7,1.7-7.4,2.5-11.1c2.2-4.3,4.4-8.7,6.5-13l0,0.1c2-2.7,4-5.4,6-8.1l0,0.1c2-2.7,4-5.4,6.1-8c0,0,0,0.1,0,0.1
	c0.3-0.4,0.7-0.7,1-1.1l-0.1,0.1c0.4-0.5,0.7-0.9,1.1-1.4c2.9-2.9,5.7-5.7,8.6-8.6c0.5-0.4,1-0.7,1.4-1.1c0,0-0.1,0.1-0.1,0.1
	c0.4-0.4,0.7-0.7,1.1-1.1c0,0-0.1,0.1-0.1,0.1c0.4-0.3,0.7-0.7,1.1-1c0,0-0.1,0-0.1,0c1-0.7,2-1.4,3-2.1l-0.1,0
	c0.7-0.7,1.4-1.3,2.1-2c0,0,0,0.1,0,0.1c0.4-0.3,0.7-0.7,1.1-1c0,0-0.1,0-0.1,0c2.3-1.7,4.7-3.4,7-5.1l-0.1,0c1-0.7,2.1-1.3,3.1-2
	l-0.1,0.1c0.3-0.2,0.6-0.3,0.9-0.5c11.6-8.3,24.9-12.6,38.9-14.4c8.5-1.1,17-1.6,25.6-1.5c4.3,0,8.7,1.6,12.9,3.1
	c5.6,2,11,4.6,16.6,6.7c12.3,4.4,21.3,13.2,30.2,22.2c0.7,0.8,1.4,1.7,2.1,2.5c0,0-0.1,0-0.1,0c0.3,0.4,0.7,0.7,1,1.1
	c0,0,0-0.1,0-0.1c0.7,1,1.4,2,2.1,3l0-0.1c1,1.4,2,2.7,3,4.1l0-0.1c0.4,0.7,0.8,1.3,1.1,2l-0.1,0c0.3,0.4,0.7,0.7,1,1.1l0,0
	c2,3,4,6,6,9.1l0,0c0.4,0.7,0.7,1.4,1.1,2l0-0.1c0.6,1.1,1.3,2.1,1.9,3.2l-0.1-0.1c0.2,0.3,0.4,0.6,0.6,1c1.8,3.8,3.6,7.5,5.4,11.3
	c2.7,6.3,5.4,12.5,8.1,18.8l-0.1-0.1c0.2,0.3,0.3,0.6,0.5,0.9c0.8,4.2,1.6,8.4,2.5,12.6c0.8,4,1.1,8.3,2.7,12
	c4.4,9.7,5.7,19.3,4.7,30c-0.9,9.6,0.7,19.6,2,29.3c2.8,20.9,10.2,40.6,18.8,59.7c6.2,13.8,16.2,23.6,31.3,27
	c5.3,1.2,10.9,1.2,16.3,1.7c0.3,0,0.8,0.1,1-0.1c6.8-5.6,13.6-0.7,20.1,0.3c8.7,1.3,17.2,3.2,26,2.7c0.4,0.3,0.8,0.6,1.1,0.9
	l-0.1-0.1c0.7,0.4,1.3,0.7,2,1.1l0,0c1.7,0.4,3.4,1,5.1,1c9.6,0.1,19.3,0,28.9,0l0,0c2,0.3,4,0.7,6,1l0,0c1.4,0.3,2.8,1,4.1,1
	c7.6,0.1,15.3,0,22.9,0l0,0c1,0.3,2,0.7,3,1l0,0c1,0.3,2,0.7,3,1l0,0c1,0.3,2,0.7,3,1l0,0c1,0.4,2,1,3.1,1c8.3,0.4,16.7,0.7,25,1
	l0,0c1.3,0.4,2.7,0.7,4,1.1c0,0,0,0,0,0c1.7,0.7,3.4,1.3,5.1,2c0,0,0,0,0,0c0.7,0.3,1.4,0.7,2,1c0,0,0,0,0,0c0.7,0.3,1.4,0.7,2,1
	l0,0c1.3,0.7,2.7,1.3,4,2l0,0c0.7,0.3,1.4,0.7,2,1c0,0,0,0,0,0c0.4,0.3,0.7,0.7,1.1,1c0,0,0,0,0,0c0.3,0.3,0.7,0.7,1,1l0,0
	c0.7,0.4,1.3,0.7,2,1.1c0,0,0,0,0,0c0.4,0.3,0.7,0.7,1.1,1c0,0,0,0,0,0c0.4,0.3,0.7,0.7,1.1,1l0,0c0.4,0.3,0.7,0.7,1.1,1l0,0
	c0.3,0.3,0.7,0.7,1,1c0,0,0,0,0,0c0.3,0.4,0.7,0.7,1,1.1l-0.1,0c0.3,0.4,0.7,0.7,1,1.1l0-0.1c0.7,1,1.4,2,2.1,3l-0.1,0
	c0.3,0.3,0.7,0.7,1,1l0,0c0.3,0.4,0.7,0.7,1,1.1l0,0c0.4,0.7,0.7,1.3,1.1,2l-0.1,0c0.3,0.4,0.7,0.7,1,1.1l0,0c0.3,0.7,0.7,1.4,1,2
	l-0.1,0c0.3,0.4,0.7,0.7,1,1.1c0,0,0,0,0,0c0.4,0.7,0.7,1.4,1.1,2l0-0.1c0.3,0.7,0.7,1.4,1,2.1c0,0,0-0.1,0-0.1
	c0.3,0.7,0.7,1.4,1,2.1c0,0,0-0.1,0-0.1c0.3,0.7,0.7,1.4,1,2.1l0-0.1c0.4,1,0.7,2,1.1,3l0-0.1c0.7,1.7,1.3,3.4,2,5.1l0-0.1
	c0.4,1.3,0.7,2.7,1.1,4l0-0.1c0.3,1.4,0.7,2.7,1,4.1c0,0,0-0.1,0-0.1c0.3,1.7,0.7,3.4,1,5.1l0-0.1c0,20.4,0,40.8,0,61.1l0-0.1
	c-0.7,3-1.4,6-2,9.1l0.1,0c-0.4,1.7-0.7,3.4-1.1,5l0.1,0c-0.4,2-0.7,4-1.1,6l0-0.1c-0.7,3-1.4,6-2.1,9c0,4.3,0,8.7,0,13
	c0.3,1.8,0.6,3.5,1,5.3c1,4.6,2.1,9.1,3.1,13.7l0-0.1c0.6,8.5,1.8,17,1.8,25.6c0,7.9-1.1,15.7-1.8,23.6l0-0.1
	c-0.4,1.7-0.7,3.4-1.1,5.1c0,0,0-0.1,0-0.1c-0.7,2.4-1.4,4.7-2,7.1c0,0,0-0.1,0-0.1c-0.3,1-0.7,2-1,3.1l0,0c-0.4,1-0.7,2-1.1,3
	l0-0.1c-0.7,1.7-1.3,3.4-2,5.1l0,0c-0.7,1.7-1.4,3.4-2,5l0,0c-0.3,0.7-0.7,1.4-1,2.1l0,0c-0.3,0.7-0.7,1.4-1,2l0,0
	c-0.4,0.7-0.7,1.3-1.1,2c0,0,0,0,0,0c-0.3,0.7-0.7,1.3-1,2c0,0,0,0,0,0c-0.4,0.7-0.7,1.3-1.1,2l0,0c-0.3,0.7-0.7,1.3-1,2l0,0
	c-0.4,0.7-0.7,1.3-1.1,2l0,0c-0.4,0.7-0.7,1.4-1.1,2l0-0.1c-0.4,0.7-0.7,1.4-1.1,2l0-0.1c-0.3,0.4-0.6,0.7-1,1.1l0.1,0
	c-0.4,0.7-0.7,1.3-1.1,2l0,0c-0.3,0.4-0.7,0.7-1,1.1l0.1,0c-0.4,0.7-0.7,1.3-1.1,2c0,0,0,0,0,0c-0.7,1-1.3,2-2,3.1l0-0.1
	c-0.3,0.4-0.6,0.7-1,1.1l0.1,0c-0.4,0.6-0.8,1.3-1.1,1.9c0,0,0,0,0,0c-0.3,0.4-0.6,0.7-1,1.1l0.1,0c-0.7,1-1.3,2-2,3l0,0
	c-0.7,1-1.3,2-2,3c0,0,0,0,0,0c-0.7,1-1.4,2-2,3l0-0.1c-0.3,0.4-0.6,0.7-1,1.1l0.1,0c-0.4,0.6-0.8,1.3-1.2,1.9l0-0.1
	c-0.3,0.4-0.7,0.7-1,1.1l0.1,0c-0.3,0.4-0.7,0.7-1,1.1c0,0,0.1,0,0.1,0c-0.7,1-1.4,2-2.1,3l0-0.1c-0.3,0.4-0.7,0.7-1,1.1l0,0
	c-0.3,0.4-0.6,0.7-1,1.1c-0.3,0.3-0.7,0.7-1,1l0,0c-0.7,1-1.4,1.9-2.1,2.9l0-0.1c-0.3,0.4-0.7,0.7-1,1.1l0,0c-0.3,0.3-0.7,0.7-1,1
	l0,0c-0.3,0.4-0.7,0.7-1,1.1L750,687c0,0,0.2,0.2,0.2,0.2c-0.3,0.3-0.6,0.7-1,1c0,0-0.2-0.2-0.2-0.2l0.2,0.2c-0.3,0.3-0.7,0.7-1,1
	l-0.1-0.2l0.1,0.2c-0.3,0.3-0.7,0.7-1,1l-0.1-0.2l0.1,0.2c-0.3,0.3-0.7,0.7-1,1l0,0c-0.3,0.3-0.7,0.7-1,1l0,0.1
	c-0.4,0.2-0.9,0.4-1.3,0.7c-0.3,0.4-0.6,0.8-0.8,1.3l0-0.1c-0.4,0.3-0.7,0.7-1.1,1l0.1,0c-1.3,1-2.6,2.1-4,3.1l0-0.1
	c-0.3,0.3-0.7,0.7-1,1l0,0c-0.3,0.3-0.7,0.7-1,1c0,0,0.1-0.1,0.1-0.1c-0.4,0.7-0.7,1.3-1.1,2l0-0.1c-0.3,1-0.7,2-1,3.1c0,0,0,0,0,0
	c-4.1,10-4.8,20.4-3.6,31c0.9,7.5,2,15.1,2.4,22.7c0.3,5.1-0.5,10.2-0.8,15.4l0.1-0.1c-0.7,2.7-1.3,5.4-2,8.1l0.1-0.1
	c-0.4,1.7-0.7,3.4-1.1,5l0-0.1c-0.9,3.8-2.1,7.7-2.7,11.6c-0.2,1.4,0.5,2.9,0.8,4.4l-0.1-0.1c0.3,1,0.7,2.1,1,3.1l-0.1-0.1
	c0.7,2.3,1.4,4.7,2.1,7l-0.1,0c0.4,1,0.7,2,1.1,3.1c0,0-0.1,0-0.1,0c0,0.9-0.1,1.9-0.1,2.8c-23.5,17.3-48.3,32.5-74.8,44.7
	c-35.2,16.3-71.8,28.4-110.3,34.5c-24.1,3.9-48.3,5.9-72.6,5.7c-26.6-0.2-53.2-2.4-79.3-7.9c0.8-0.9,1.4-2,2.3-2.6
	c5-3.2,5.4-8.2,4.5-13.1c-1.3-7.4-3.2-14.7-4.9-22.1c-1.6-9-3.1-18-4.7-26.9c-0.2-5-0.3-10.1-0.5-15.1c0.1-1,0.2-2.1,0.3-3.1
	c-0.3-12.1-0.7-24.2-1-36.3c0.3-5.9,0.7-11.8,1-17.7c-1.5-6.2-3-12.5-4.7-18.7c-0.2-0.8-1.6-1.3-2.5-2l0.1,0c-0.3-0.4-0.7-0.7-1-1.1
	l0.1,0.1c-0.4-0.4-0.7-0.7-1.1-1.1l0,0c-0.6-2-1.2-4-1.8-6c-2.1-3.1-4.1-6.1-6.2-9.2c0-13.3,0.1-26.7,0.1-40
	c2.9-9,1.1-14.8-5.1-15.2c0,2.1,0,4.3,0,6.4c-1,5-1.4,10.2-3,15c-4.8,14.9-8,30-7.1,45.8c0.1,0.7,0.2,1.4,0.2,2.1
	c-0.4,5.4-0.8,10.8-1.3,16.2c-0.3,1.4-0.8,2.9-0.9,4.3c-0.6,12.2-2.2,24.3-5.7,36.1c-2,6.9-3,14.2-4.4,21.3
	c0.1,4.7,0.2,9.5,0.3,14.2c0.3,1.6,0.5,3.2,0.8,4.8c0.1,2.7,0.1,5.5,0.2,8.2c0.2,1.6,0.5,3.3,0.7,4.9c0.1,3.4,0.2,6.7,0.3,10.1
	c0.1,1.6,0.1,3.2,0.2,4.8c0.3,3.1,0.6,6.1,0.9,9.2c0,0.9,0.1,1.9,0.1,2.8c0.4,1.7,0.7,3.5,1.1,5.2c0,0.6,0,1.2-0.1,1.8
	c0.4,1.1,0.8,2.2,1.1,3.3c0.2,0.6,0.3,1.2,0.5,1.7c-0.3,0.5-0.7,1-1,1.5c-18-7-36.2-13.6-54.1-21c-20.9-8.7-40.2-20.4-59-32.9
	C238.3,831.2,237.7,831.1,237.1,830.8z"/>
<path class="st5" d="M732.1,774.1c0.3-5.1,1.1-10.3,0.8-15.4c-0.4-7.6-1.5-15.1-2.4-22.7c-1.2-10.6-0.5-21,3.6-31
	c-0.7,4.1-1.3,8.2-2.1,12.2c-2.2,10.5,0.1,20.8,1.3,31.2C734.4,757.1,735,765.7,732.1,774.1z"/>
<path class="st7" d="M799.1,492.1c0-20.4,0-40.8,0-61.1c0.6,2.7,1.6,5.4,1.6,8.1c-0.1,16.8-0.3,33.5-0.6,50.3
	C800,490.3,799.4,491.2,799.1,492.1z"/>
<path class="st8" d="M797.1,602.1c0.6-7.9,1.8-15.7,1.8-23.6c0-8.5-1.1-17-1.8-25.6c0.9,5.3,2.6,10.6,2.5,15.9
	c0,10.4-1,20.7-1.6,31.1C798,600.7,797.4,601.4,797.1,602.1z"/>
<path class="st9" d="M240.9,740c0,15.7,0.1,31.3,0,47c0,1.4-0.6,2.8-1,4.2c0-17,0.1-34.1,0.1-51.1C240.4,740,240.7,740,240.9,740z"
	/>
<path class="st10" d="M240,683.9c0,15.4,0,30.7,0,46.1c-0.3-4.3-0.9-8.6-1-12.8c-0.1-9.3,0-18.6,0.1-28
	C239.1,687.5,239.7,685.7,240,683.9z"/>
<path class="st11" d="M315.9,231c4,11,8.6,21.9,8.1,33.9c-2.6-10-5.3-20-7.9-30C315.8,233.7,316,232.3,315.9,231z"/>
<path class="st12" d="M248,572.1c0,9.6,0,19.2,0,28.8c0,3.7,0.1,7.4,0.1,11c-0.4-11.4-0.8-22.7-1-34.1
	C247.1,576,247.7,574.1,248,572.1z"/>
<path class="st7" d="M682,367c-9.6,0-19.3,0.1-28.9,0c-1.7,0-3.4-0.7-5.1-1c9.4,0,18.9,0,28.3,0.2C678.2,366.2,680.1,366.7,682,367z
	"/>
<path class="st13" d="M293,348.9c-0.5,5.9,2.7,10.6,5,15.5c1,2.2,2,4.4,3,6.6c-2.9-5.3-6-10.6-8.5-16.1
	C291.7,353.4,292.8,351,293,348.9z"/>
<path class="st7" d="M752.1,374c-8.3-0.3-16.7-0.6-25-1c-1,0-2-0.7-3.1-1c6.6,0,13.1-0.2,19.7,0.1
	C746.5,372.2,749.3,373.3,752.1,374z"/>
<path class="st14" d="M519.1,188c-2.7-6.3-5.4-12.5-8.1-18.8C513.7,175.5,516.4,181.7,519.1,188z"/>
<path class="st7" d="M715,369c-7.6,0-15.3,0.1-22.9,0c-1.4,0-2.8-0.6-4.1-1c7.3,0,14.6-0.1,21.9,0C711.6,368,713.3,368.6,715,369z"
	/>
<path class="st15" d="M314.9,201c0.4,1.4,1,2.7,1,4.1c0.1,7.3,0,14.6,0,21.9c-0.2,0-0.5,0-0.7,0C315.1,218.3,315,209.7,314.9,201z"
	/>
<path class="st8" d="M797.1,553c-1-4.6-2.1-9.1-3.1-13.7c-0.4-1.7-0.7-3.5-1-5.3c0.6,0.5,1.5,1,1.6,1.6
	C795.5,541.4,796.3,547.2,797.1,553z"/>
<path class="st15" d="M310,180c1.3,5.7,2.6,11.4,3.9,17.1C310.7,191.8,308.5,186.4,310,180z"/>
<path class="st5" d="M727.1,803c-0.3-1.5-1-3-0.8-4.4c0.7-3.9,1.8-7.7,2.7-11.6C728.5,792.3,727.8,797.6,727.1,803z"/>
<path class="st16" d="M319,156c-2.2,4.3-4.4,8.7-6.5,13C314.6,164.6,316.8,160.3,319,156z"/>
<path class="st17" d="M342,307c-2.3,2.3-4.7,4.7-7,7C337.3,311.7,339.7,309.3,342,307z"/>
<path class="st18" d="M502.1,151.9c-2-3-4-6-6-9.1C498.1,145.9,500.1,148.9,502.1,151.9z"/>
<path class="st10" d="M243,660.9c-0.7,4.4-1.4,8.7-2,13.1C241.6,669.7,242.3,665.3,243,660.9z"/>
<path class="st16" d="M324.9,147.9c-2,2.7-4,5.4-6,8.1C321,153.3,323,150.6,324.9,147.9z"/>
<path class="st16" d="M331,139.9c-2,2.7-4,5.4-6.1,8C326.9,145.3,329,142.6,331,139.9z"/>
<path class="st7" d="M797.1,501.1c0.7-3,1.4-6,2-9.1C798.4,495,797.8,498.1,797.1,501.1z"/>
<path class="st16" d="M358,115.9c-2.3,1.7-4.7,3.4-7,5.1C353.3,119.3,355.6,117.6,358,115.9z"/>
<path class="st17" d="M338.9,293c3.4,0.8,3,3.5,3,6C341,297.1,339.9,295,338.9,293z"/>
<path class="st10" d="M240.9,740c-0.3,0-0.5,0-0.8,0c-0.1-3.3-0.1-6.7-0.2-10C240.3,733.3,240.6,736.6,240.9,740z"/>
<path class="st5" d="M730.1,782.1c0.7-2.7,1.3-5.4,2-8.1C731.4,776.7,730.8,779.4,730.1,782.1z"/>
<path class="st10" d="M241,673.9c-0.3,3.4-0.7,6.7-1,10.1C240.3,680.7,240.6,677.3,241,673.9z"/>
<path class="st7" d="M793,521c0.7-3,1.4-6,2.1-9C794.4,515,793.7,518,793,521z"/>
<path class="st13" d="M311.9,384c1.7,1.8,3.4,3.7,5.1,5.5C315.3,387.7,313.6,385.9,311.9,384z"/>
<path class="st5" d="M730.2,812.9c-0.7-2.3-1.4-4.7-2.1-7C728.8,808.3,729.5,810.6,730.2,812.9z"/>
<path class="st10" d="M246.9,646.9c-0.7,2.4-1.4,4.7-2,7.1C245.6,651.6,246.3,649.3,246.9,646.9z"/>
<path class="st8" d="M794.1,614.1c0.7-2.4,1.4-4.7,2-7.1C795.4,609.4,794.7,611.7,794.1,614.1z"/>
<path class="st5" d="M738.2,698.3c1.3-1,2.6-2.1,4-3.1C740.8,696.2,739.5,697.2,738.2,698.3z"/>
<path class="st17" d="M341.9,299c0,2.7,0.1,5.3,0.1,8C342,304.3,342,301.7,341.9,299z"/>
<path class="st13" d="M301,371c1.3,1.7,2.7,3.4,4,5.1C303.6,374.4,302.3,372.7,301,371z"/>
<path class="st13" d="M304.9,376c1.3,1.7,2.7,3.3,4,5C307.6,379.4,306.3,377.7,304.9,376z"/>
<path class="st7" d="M796,418c-0.7-1.7-1.3-3.4-2-5.1C794.7,414.6,795.4,416.3,796,418z"/>
<path class="st7" d="M761.1,377c-1.7-0.7-3.4-1.3-5.1-2C757.7,375.6,759.4,376.3,761.1,377z"/>
<path class="st10" d="M249,636c-0.4,2.3-0.7,4.6-1.1,7C248.3,640.7,248.6,638.4,249,636z"/>
<path class="st8" d="M788.1,630.1c0.7-1.7,1.4-3.4,2-5C789.5,626.7,788.8,628.4,788.1,630.1z"/>
<path class="st8" d="M790.1,625.1c0.7-1.7,1.3-3.4,2-5.1C791.4,621.7,790.8,623.4,790.1,625.1z"/>
<path class="st17" d="M329.8,283.1c1.3,1.4,2.7,2.7,4,4.1C332.5,285.8,331.2,284.4,329.8,283.1z"/>
<path class="st17" d="M331,318.9c-1.3,0.7-2.7,1.4-4,2C328.3,320.3,329.6,319.6,331,318.9z"/>
<path class="st7" d="M795.1,512.1c0.4-2,0.7-4,1.1-6C795.8,508,795.4,510.1,795.1,512.1z"/>
<path class="st7" d="M688,368c-2-0.3-4-0.7-6-1C684,367.4,686,367.7,688,368z"/>
<path class="st17" d="M327.4,279c0.8,1.4,1.6,2.7,2.5,4.1C329.1,281.8,328.2,280.4,327.4,279z"/>
<path class="st18" d="M494.1,140c-1-1.4-2-2.7-3-4.1C492.1,137.2,493.1,138.6,494.1,140z"/>
<path class="st8" d="M773.2,657.2c0.7-1,1.3-2,2-3.1C774.5,655.1,773.9,656.2,773.2,657.2z"/>
<path class="st8" d="M768.2,664.2c0.7-1,1.3-2,2-3C769.6,662.2,768.9,663.2,768.2,664.2z"/>
<path class="st13" d="M297,342c-0.7,1-1.4,2-2,3C295.6,344,296.3,343,297,342z"/>
<path class="st13" d="M295,344.9c-0.7,1.3-1.4,2.7-2,4C293.6,347.6,294.3,346.3,295,344.9z"/>
<path class="st8" d="M766.2,667.2c0.7-1,1.3-2,2-3C767.6,665.2,766.9,666.2,766.2,667.2z"/>
<path class="st8" d="M764.2,670.2c0.7-1,1.4-2,2-3C765.5,668.2,764.9,669.2,764.2,670.2z"/>
<path class="st7" d="M796.1,506.1c0.4-1.7,0.7-3.4,1.1-5C796.8,502.7,796.4,504.4,796.1,506.1z"/>
<path class="st19" d="M758.2,678.2c0.7-1,1.4-2,2.1-3C759.6,676.2,758.9,677.2,758.2,678.2z"/>
<path class="st19" d="M753.2,684.2c0.7-1,1.4-1.9,2.1-2.9C754.6,682.2,753.9,683.2,753.2,684.2z"/>
<path class="st8" d="M796.1,607.1c0.4-1.7,0.7-3.4,1.1-5.1C796.8,603.7,796.4,605.4,796.1,607.1z"/>
<path class="st7" d="M799.1,431c-0.3-1.7-0.7-3.4-1-5.1C798.4,427.6,798.7,429.3,799.1,431z"/>
<path class="st5" d="M729.1,787.1c0.4-1.7,0.7-3.4,1.1-5C729.8,783.7,729.4,785.4,729.1,787.1z"/>
<path class="st18" d="M505.1,157c-0.6-1.1-1.3-2.1-1.9-3.2C503.8,154.9,504.4,156,505.1,157z"/>
<path class="st7" d="M783.1,394c-0.7-1-1.4-2-2.1-3C781.7,391.9,782.4,392.9,783.1,394z"/>
<path class="st7" d="M769.1,380.9c-1.3-0.7-2.7-1.3-4-2C766.4,379.6,767.7,380.3,769.1,380.9z"/>
<path class="st7" d="M798.1,426c-0.3-1.4-0.7-2.7-1-4.1C797.4,423.3,797.7,424.6,798.1,426z"/>
<path class="st16" d="M350,121.9c-0.7,0.7-1.4,1.3-2.1,2C348.6,123.2,349.3,122.6,350,121.9z"/>
<path class="st16" d="M361,113.9c-1,0.7-2.1,1.3-3.1,2C358.9,115.3,360,114.6,361,113.9z"/>
<path class="st16" d="M348,123.9c-1,0.7-2,1.4-3,2.1C346,125.3,347,124.6,348,123.9z"/>
<path class="st7" d="M797.1,422c-0.4-1.3-0.7-2.7-1.1-4C796.4,419.3,796.7,420.7,797.1,422z"/>
<path class="st18" d="M488.1,131.9c-0.7-0.8-1.4-1.7-2.1-2.5C486.7,130.3,487.4,131.1,488.1,131.9z"/>
<path class="st18" d="M491.1,135.9c-0.7-1-1.4-2-2.1-3C489.7,133.9,490.4,134.9,491.1,135.9z"/>
<path class="st7" d="M756,375c-1.3-0.4-2.7-0.7-4-1.1C753.4,374.3,754.7,374.6,756,375z"/>
<path class="st10" d="M247.9,642.9c-0.3,1.4-0.7,2.7-1,4.1C247.3,645.6,247.6,644.3,247.9,642.9z"/>
<path class="st10" d="M245,653.9c-0.3,1.4-0.7,2.7-1,4.1C244.3,656.6,244.6,655.3,245,653.9z"/>
<path class="st17" d="M327,321c-1.3,0.4-2.7,0.7-4,1.1C324.3,321.7,325.7,321.3,327,321z"/>
<path class="st17" d="M336.8,290.1c0.7,1,1.4,2,2.2,2.9C338.3,292.1,337.5,291.1,336.8,290.1z"/>
<path class="st11" d="M315.2,227c0.2,0,0.5,0,0.7,0c0,1.4,0,2.7,0,4.1C315.7,229.7,315.5,228.4,315.2,227z"/>
<path class="st15" d="M313.8,197.1c0.4,1.3,0.7,2.7,1.1,4C314.6,199.7,314.2,198.4,313.8,197.1z"/>
<path class="st5" d="M728.1,806c-0.3-1-0.7-2.1-1-3.1C727.4,803.9,727.8,805,728.1,806z"/>
<path class="st5" d="M731.2,815.9c-0.4-1-0.7-2-1.1-3.1C730.5,813.9,730.8,814.9,731.2,815.9z"/>
<path class="st5" d="M731,818.7c0-0.9,0.1-1.9,0.1-2.8c0.3,1,0.6,2.1,0.9,3.1C731.7,818.9,731.3,818.8,731,818.7z"/>
<path class="st5" d="M734.1,705.1c0.3-1,0.7-2,1-3.1C734.8,703.1,734.5,704.1,734.1,705.1z"/>
<path class="st5" d="M733,822.1c-0.4-1-0.7-2.1-1.1-3.1C732.3,820,732.7,821,733,822.1z"/>
<path class="st10" d="M243.9,657.9c-0.3,1-0.7,2.1-1,3.1C243.3,660,243.6,659,243.9,657.9z"/>
<path class="st5" d="M734,825.1c-0.4-1-0.7-2.1-1.1-3.1C733.3,823,733.7,824,734,825.1z"/>
<path class="st5" d="M735,828.1c-0.4-1-0.7-2.1-1.1-3.1C734.3,826,734.7,827,735,828.1z"/>
<path class="st8" d="M792.1,620.1c0.4-1,0.7-2,1.1-3C792.8,618,792.4,619.1,792.1,620.1z"/>
<path class="st7" d="M794.1,413c-0.4-1-0.7-2-1.1-3C793.4,411,793.7,412,794.1,413z"/>
<path class="st5" d="M736,831.1c-0.4-1-0.7-2.1-1.1-3.1C735.3,829,735.7,830,736,831.1z"/>
<path class="st7" d="M724,372c-1-0.3-2-0.7-3-1C722,371.3,723,371.6,724,372z"/>
<path class="st7" d="M721,371c-1-0.3-2-0.7-3-1C719,370.3,720,370.6,721,371z"/>
<path class="st7" d="M718,370c-1-0.3-2-0.7-3-1C716,369.3,717,369.6,718,370z"/>
<path class="st8" d="M793.1,617.1c0.3-1,0.7-2,1-3.1C793.8,615,793.4,616.1,793.1,617.1z"/>
<path class="st13" d="M299,339.9c-0.7,0.7-1.3,1.4-2,2.1C297.6,341.3,298.3,340.6,299,339.9z"/>
<path class="st13" d="M309.9,382c0.7,0.7,1.3,1.4,2,2.1C311.2,383.4,310.6,382.7,309.9,382z"/>
<path class="st7" d="M646.1,365c-0.4-0.3-0.8-0.6-1.1-0.9C645.3,364.4,645.7,364.7,646.1,365z"/>
<path class="st7" d="M648,366c-0.7-0.4-1.3-0.7-2-1.1C646.7,365.3,647.4,365.6,648,366z"/>
<path class="st7" d="M771.1,382c-0.7-0.3-1.4-0.7-2-1C769.7,381.3,770.4,381.6,771.1,382z"/>
<path class="st7" d="M765.1,379c-0.7-0.3-1.4-0.7-2-1C763.7,378.3,764.4,378.6,765.1,379z"/>
<path class="st13" d="M304,336c-0.7,0.3-1.3,0.7-2,1C302.7,336.7,303.3,336.3,304,336z"/>
<path class="st7" d="M775,385c-0.7-0.4-1.3-0.7-2-1.1C773.7,384.3,774.4,384.6,775,385z"/>
<path class="st7" d="M793.1,410c-0.3-0.7-0.7-1.4-1-2.1C792.4,408.6,792.7,409.3,793.1,410z"/>
<path class="st13" d="M306,335c-0.7,0.3-1.3,0.6-2,1C304.7,335.7,305.3,335.4,306,335z"/>
<path class="st13" d="M308,334.1c-0.7,0.3-1.3,0.6-2,1C306.7,334.7,307.4,334.4,308,334.1z"/>
<path class="st8" d="M787.1,632.1c0.3-0.7,0.7-1.4,1-2.1C787.8,630.7,787.5,631.4,787.1,632.1z"/>
<path class="st8" d="M786.2,634.1c0.3-0.7,0.7-1.4,1-2C786.8,632.8,786.5,633.4,786.2,634.1z"/>
<path class="st8" d="M785.2,636.1c0.4-0.7,0.7-1.3,1.1-2C785.9,634.8,785.5,635.5,785.2,636.1z"/>
<path class="st13" d="M310,333c-0.7,0.3-1.3,0.7-2,1C308.7,333.7,309.4,333.3,310,333z"/>
<path class="st8" d="M784.2,638.1c0.3-0.7,0.7-1.3,1-2C784.9,636.8,784.5,637.5,784.2,638.1z"/>
<path class="st8" d="M783.2,640.1c0.4-0.7,0.7-1.3,1.1-2C783.9,638.8,783.5,639.5,783.2,640.1z"/>
<path class="st8" d="M782.2,642.1c0.3-0.7,0.7-1.3,1-2C782.9,640.8,782.5,641.5,782.2,642.1z"/>
<path class="st8" d="M781.1,644.1c0.4-0.7,0.7-1.3,1.1-2C781.9,642.8,781.5,643.5,781.1,644.1z"/>
<path class="st7" d="M792.1,408c-0.3-0.7-0.7-1.4-1-2.1C791.4,406.6,791.7,407.3,792.1,408z"/>
<path class="st8" d="M780.1,646.1c0.4-0.7,0.7-1.4,1.1-2C780.8,644.8,780.5,645.4,780.1,646.1z"/>
<path class="st8" d="M779.1,648.1c0.4-0.7,0.7-1.4,1.1-2C779.8,646.7,779.4,647.4,779.1,648.1z"/>
<path class="st18" d="M495.2,141.9c-0.4-0.7-0.8-1.3-1.1-2C494.5,140.6,494.8,141.2,495.2,141.9z"/>
<path class="st7" d="M763.1,378c-0.7-0.3-1.4-0.7-2-1C761.7,377.3,762.4,377.6,763.1,378z"/>
<path class="st8" d="M777.1,651.1c0.4-0.7,0.7-1.3,1.1-2C777.9,649.8,777.5,650.5,777.1,651.1z"/>
<path class="st18" d="M503.2,153.9c-0.4-0.7-0.7-1.4-1.1-2C502.4,152.6,502.8,153.3,503.2,153.9z"/>
<path class="st8" d="M775.2,654.1c0.4-0.7,0.7-1.3,1.1-2C775.9,652.8,775.5,653.5,775.2,654.1z"/>
<path class="st7" d="M791.1,406c-0.3-0.7-0.7-1.4-1-2.1C790.4,404.6,790.7,405.3,791.1,406z"/>
<path class="st13" d="M312,331.9c-0.7,0.4-1.3,0.7-2,1.1C310.7,332.6,311.3,332.3,312,331.9z"/>
<path class="st7" d="M786.1,398c-0.4-0.7-0.7-1.3-1.1-2C785.4,396.6,785.8,397.3,786.1,398z"/>
<path class="st7" d="M790.1,404c-0.4-0.7-0.7-1.4-1.1-2C789.4,402.6,789.7,403.3,790.1,404z"/>
<path class="st8" d="M771.1,660.1c0.4-0.6,0.8-1.3,1.1-1.9C771.9,658.8,771.5,659.5,771.1,660.1z"/>
<path class="st17" d="M335,314c-0.3,0.7-0.7,1.3-1,2C334.3,315.3,334.6,314.6,335,314z"/>
<path class="st13" d="M314,328.9c-0.3,0.7-0.7,1.4-1,2C313.3,330.3,313.6,329.6,314,328.9z"/>
<path class="st7" d="M788.1,401c-0.3-0.7-0.7-1.4-1-2C787.4,399.6,787.7,400.3,788.1,401z"/>
<path class="st5" d="M735.1,702.1c0.4-0.7,0.7-1.3,1.1-2C735.8,700.8,735.5,701.4,735.1,702.1z"/>
<path class="st17" d="M317,325.9c-0.3,0.4-0.7,0.8-1,1.2c-0.2-0.1-0.4-0.1-0.6-0.1C315.9,326.7,316.4,326.3,317,325.9z"/>
<path class="st19" d="M744,693c0.4-0.2,0.9-0.4,1.3-0.7c-0.4,0.6-0.9,1.1-1.3,1.7C744,693.6,744,693.3,744,693z"/>
<path class="st8" d="M762.1,673.1c0.4-0.6,0.8-1.3,1.2-1.9C762.9,671.8,762.5,672.5,762.1,673.1z"/>
<path class="st17" d="M323,322c-0.7,0.3-1.4,0.6-2.1,0.9C321.6,322.7,322.3,322.3,323,322z"/>
<path class="st17" d="M321,322.9c-0.7,0.3-1.4,0.7-2,1C319.6,323.6,320.3,323.3,321,322.9z"/>
<path class="st17" d="M319,324c-0.4,0.3-0.7,0.7-1.1,1C318.3,324.6,318.6,324.3,319,324z"/>
<path class="st19" d="M760.2,675.2c0.3-0.4,0.7-0.7,1-1.1C760.8,674.5,760.5,674.8,760.2,675.2z"/>
<path class="st19" d="M761.1,674.2c0.3-0.4,0.7-0.7,1-1.1C761.8,673.4,761.5,673.8,761.1,674.2z"/>
<path class="st19" d="M757.2,679.2c0.3-0.4,0.7-0.7,1-1.1C757.8,678.4,757.5,678.8,757.2,679.2z"/>
<path class="st17" d="M318,324.9c-0.3,0.3-0.7,0.7-1,1C317.3,325.6,317.6,325.3,318,324.9z"/>
<path class="st19" d="M756.2,680.2c0.3-0.4,0.6-0.7,1-1.1C756.9,679.5,756.5,679.9,756.2,680.2z"/>
<path class="st19" d="M755.2,681.2c0.3-0.3,0.7-0.7,1-1C755.9,680.6,755.6,680.9,755.2,681.2z"/>
<path class="st7" d="M789.1,402c-0.3-0.4-0.7-0.7-1-1.1C788.4,401.3,788.7,401.6,789.1,402z"/>
<path class="st17" d="M332,318c-0.3,0.3-0.7,0.7-1,1C331.3,318.6,331.6,318.3,332,318z"/>
<path class="st19" d="M752.1,685.2c0.3-0.4,0.7-0.7,1-1.1C752.8,684.4,752.5,684.8,752.1,685.2z"/>
<path class="st19" d="M751.1,686.2c0.3-0.3,0.7-0.7,1-1C751.8,685.5,751.5,685.8,751.1,686.2z"/>
<path class="st19" d="M750.2,687.2c0.3-0.4,0.7-0.7,1-1.1C750.8,686.5,750.5,686.8,750.2,687.2z"/>
<path class="st19" d="M749.2,688.2c0.3-0.3,0.6-0.7,1-1C749.9,687.5,749.6,687.9,749.2,688.2z"/>
<path class="st19" d="M748.3,689.2c0.3-0.3,0.7-0.7,1-1C748.9,688.6,748.6,688.9,748.3,689.2z"/>
<path class="st19" d="M747.3,690.2c0.3-0.3,0.7-0.7,1-1C747.9,689.6,747.6,689.9,747.3,690.2z"/>
<path class="st19" d="M746.2,691.2c0.3-0.3,0.7-0.7,1-1C746.9,690.6,746.6,690.9,746.2,691.2z"/>
<path class="st19" d="M745.2,692.2c0.3-0.3,0.7-0.7,1-1C745.9,691.6,745.6,691.9,745.2,692.2z"/>
<path class="st8" d="M763.2,671.2c0.3-0.4,0.6-0.7,1-1.1C763.8,670.5,763.5,670.8,763.2,671.2z"/>
<path class="st5" d="M744,693c0,0.3,0,0.7,0,1l-0.4,0.3l-0.5,0C743.4,693.8,743.7,693.4,744,693z"/>
<path class="st5" d="M742.1,695.1c0.4-0.3,0.7-0.7,1.1-1C742.8,694.4,742.4,694.8,742.1,695.1z"/>
<path class="st17" d="M333,317c-0.3,0.3-0.7,0.7-1,1C332.3,317.6,332.6,317.3,333,317z"/>
<path class="st5" d="M737.2,699.2c0.3-0.3,0.7-0.7,1-1C737.8,698.5,737.5,698.8,737.2,699.2z"/>
<path class="st5" d="M736.1,700.2c0.3-0.3,0.7-0.7,1-1C736.8,699.5,736.5,699.8,736.1,700.2z"/>
<path class="st13" d="M315.4,327c0.2,0,0.4,0.1,0.6,0.1c-0.3,0.3-0.7,0.5-1,0.8C315.1,327.7,315.2,327.4,315.4,327z"/>
<path class="st13" d="M315,327.9c-0.3,0.3-0.7,0.7-1,1C314.3,328.6,314.6,328.3,315,327.9z"/>
<path class="st17" d="M334,315.9c-0.3,0.3-0.7,0.7-1,1C333.3,316.6,333.6,316.3,334,315.9z"/>
<path class="st13" d="M313,330.9c-0.3,0.3-0.7,0.7-1,1C312.3,331.6,312.6,331.3,313,330.9z"/>
<path class="st7" d="M787.1,399c-0.3-0.4-0.7-0.7-1-1.1C786.4,398.3,786.7,398.6,787.1,399z"/>
<path class="st8" d="M770.2,661.2c0.3-0.4,0.6-0.7,1-1.1C770.8,660.5,770.5,660.8,770.2,661.2z"/>
<path class="st17" d="M335.8,289.1c0.4,0.4,0.7,0.7,1.1,1.1C336.5,289.8,336.2,289.5,335.8,289.1z"/>
<path class="st17" d="M334.8,288.1c0.3,0.4,0.7,0.7,1,1.1C335.5,288.8,335.2,288.5,334.8,288.1z"/>
<path class="st17" d="M333.8,287.1c0.4,0.3,0.7,0.7,1.1,1C334.5,287.8,334.2,287.5,333.8,287.1z"/>
<path class="st8" d="M772.2,658.2c0.3-0.4,0.6-0.7,1-1.1C772.8,657.5,772.5,657.8,772.2,658.2z"/>
<path class="st7" d="M785.1,396c-0.3-0.4-0.7-0.7-1-1.1C784.4,395.3,784.7,395.6,785.1,396z"/>
<path class="st14" d="M519.5,188.9c-0.2-0.3-0.3-0.6-0.5-0.9C519.2,188.2,519.4,188.6,519.5,188.9z"/>
<path class="st18" d="M505.6,157.9c-0.2-0.3-0.4-0.6-0.6-1C505.2,157.2,505.4,157.6,505.6,157.9z"/>
<path class="st8" d="M776.2,652.2c0.3-0.4,0.7-0.7,1-1.1C776.8,651.4,776.5,651.8,776.2,652.2z"/>
<path class="st7" d="M784.1,395c-0.3-0.3-0.7-0.7-1-1C783.4,394.3,783.7,394.6,784.1,395z"/>
<path class="st18" d="M496.1,142.9c-0.3-0.4-0.7-0.7-1-1.1C495.4,142.2,495.8,142.6,496.1,142.9z"/>
<path class="st8" d="M778.2,649.2c0.3-0.4,0.6-0.7,1-1.1C778.8,648.4,778.5,648.8,778.2,649.2z"/>
<path class="st7" d="M781.1,391c-0.3-0.4-0.7-0.7-1-1.1C780.4,390.3,780.7,390.6,781.1,391z"/>
<path class="st7" d="M780.1,390c-0.3-0.4-0.7-0.7-1-1.1C779.4,389.3,779.7,389.6,780.1,390z"/>
<path class="st7" d="M779.1,389c-0.3-0.3-0.7-0.7-1-1C778.4,388.3,778.7,388.6,779.1,389z"/>
<path class="st7" d="M778.1,388c-0.4-0.3-0.7-0.7-1.1-1C777.4,387.3,777.7,387.6,778.1,388z"/>
<path class="st7" d="M777.1,387c-0.4-0.3-0.7-0.7-1.1-1C776.4,386.3,776.7,386.6,777.1,387z"/>
<path class="st16" d="M332,138.9c-0.3,0.4-0.7,0.7-1,1.1C331.3,139.6,331.6,139.3,332,138.9z"/>
<path class="st16" d="M333,137.6c-0.4,0.5-0.7,0.9-1.1,1.4C332.3,138.5,332.6,138.1,333,137.6z"/>
<path class="st7" d="M776.1,386c-0.4-0.3-0.7-0.7-1.1-1C775.4,385.3,775.7,385.6,776.1,386z"/>
<path class="st13" d="M308.9,381c0.3,0.4,0.7,0.7,1,1.1C309.6,381.7,309.3,381.4,308.9,381z"/>
<path class="st18" d="M489.1,133c-0.3-0.4-0.7-0.7-1-1.1C488.4,132.3,488.7,132.6,489.1,133z"/>
<path class="st13" d="M302,337c-0.4,0.3-0.7,0.7-1.1,1C301.3,337.7,301.7,337.3,302,337z"/>
<path class="st16" d="M343,127.9c-0.5,0.4-1,0.7-1.4,1.1C342,128.6,342.5,128.3,343,127.9z"/>
<path class="st16" d="M344,126.9c-0.4,0.4-0.7,0.7-1.1,1.1C343.3,127.6,343.6,127.3,344,126.9z"/>
<path class="st16" d="M345,125.9c-0.4,0.3-0.7,0.7-1.1,1C344.3,126.6,344.6,126.3,345,125.9z"/>
<path class="st7" d="M773.1,384c-0.3-0.3-0.7-0.7-1-1C772.4,383.3,772.7,383.6,773.1,384z"/>
<path class="st13" d="M301,338c-0.4,0.3-0.7,0.7-1.1,1C300.3,338.6,300.6,338.3,301,338z"/>
<path class="st13" d="M300,338.9c-0.4,0.3-0.7,0.7-1.1,1C299.3,339.6,299.6,339.3,300,338.9z"/>
<path class="st7" d="M772.1,383c-0.4-0.3-0.7-0.7-1.1-1C771.4,382.3,771.7,382.6,772.1,383z"/>
<path class="st16" d="M361.8,113.5c-0.3,0.2-0.6,0.3-0.9,0.5C361.2,113.8,361.5,113.6,361.8,113.5z"/>
<path class="st16" d="M351,120.9c-0.4,0.3-0.7,0.7-1.1,1C350.3,121.6,350.6,121.3,351,120.9z"/>
<path class="st20" d="M383.8,881.3c-3.1,3.7-5.7,6.9-8.5,10.4c-1.5-0.3-3.1-0.6-5.7-1.2c-1.4-9.2-3.2-18.7-4.1-28.2
	c-1.2-13.9-2-27.9-2.4-41.8c-0.1-5.5,0.7-11.3,2.2-16.7c3.9-13.5,7-27,8-41c0.1-1.6,0.6-3.1,1.4-4.6
	C372.7,799.6,374,840.8,383.8,881.3z"/>
<path class="st21" d="M347,812.9c1.4-7.1,2.4-14.4,4.4-21.3c3.5-11.8,5-23.9,5.7-36.1c0.1-1.4,0.6-2.9,0.9-4.3
	c0.3,0.8,0.6,1.5,0.9,2.3c-0.2,0.5-0.3,1-0.5,1.5c-0.6,17.4-4.7,34.2-9.6,50.9C348.1,808.1,347.6,810.5,347,812.9z"/>
<path class="st22" d="M359,732.8c-0.9-15.8,2.2-30.9,7.1-45.8c1.6-4.8,2-10,3-15l0.4,0l0.4,0c-1.9,8.5-3.2,17.2-5.7,25.6
	c-3.4,11.4-4.2,23.1-4.3,34.9C359.5,732.5,359.2,732.6,359,732.8z"/>
<path class="st23" d="M396,858c1.7,7.4,3.6,14.7,4.9,22.1c0.9,5,0.5,9.9-4.5,13.1c-0.9,0.6-1.5,1.7-2.3,2.6
	c-0.4,0.1-0.7,0.1-1.1,0.2l0.1,0.1c1.1-1.5,1.9-3.4,3.3-4.6c4-3.4,4.3-7.5,3.3-12.2c-1.6-7.1-3-14.2-4.5-21.3
	C395.4,858,395.7,858,396,858z"/>
<path class="st24" d="M374.1,680.8c0,13.3-0.1,26.7-0.1,40c-3-9.7-2.2-19.5-1.6-29.4c0.2-4,0.5-7.9,0.8-11.8
	c0.3-0.2,0.5-0.4,0.8-0.6C374,679.6,374.1,680.2,374.1,680.8z"/>
<path class="st24" d="M390,776.5c0.3,12.1,0.7,24.2,1,36.3c-0.3-0.2-0.6-0.3-0.8-0.4c-0.2-9-0.5-18.1-0.6-27.1
	C389.5,782.3,389.9,779.4,390,776.5z"/>
<path class="st21" d="M396,858c-0.3,0-0.5,0-0.8,0c-1.3-9-2.6-17.9-3.9-26.9C392.8,840,394.4,849,396,858z"/>
<path class="st24" d="M383.9,738c0.8,0.7,2.2,1.2,2.5,2c1.7,6.2,3.1,12.5,4.7,18.7C388.7,751.8,386.3,744.9,383.9,738z"/>
<path class="st25" d="M374.1,680.8c0-0.6-0.1-1.2-0.1-1.8c-0.1-0.3-0.2-0.6-0.3-0.9c0.1-4.2,2-8.8-3.4-11.9
	c-0.2,2.1-0.3,3.9-0.5,5.8l-0.4,0l-0.4,0c0-2.1,0-4.2,0-6.4C375.2,666,377,671.8,374.1,680.8z"/>
<path class="st4" d="M354,892c-0.7-2.1-1.4-4.2-2.1-6.3C352.6,887.8,353.3,889.9,354,892z"/>
<path class="st24" d="M380.2,730c0.6,2,1.2,4,1.8,6C381.4,734,380.8,732,380.2,730z"/>
<path class="st1" d="M348,831.9c-0.3-1.6-0.5-3.2-0.8-4.8C347.5,828.7,347.8,830.3,348,831.9z"/>
<path class="st1" d="M349,845c-0.2-1.6-0.5-3.3-0.7-4.9C348.5,841.7,348.7,843.3,349,845z"/>
<path class="st1" d="M349.4,859.9c-0.1-1.6-0.1-3.2-0.2-4.8C349.3,856.7,349.3,858.3,349.4,859.9z"/>
<path class="st1" d="M390.2,812.4c0.3,0.1,0.6,0.2,0.8,0.4c-0.1,1-0.2,2.1-0.3,3.1C390.6,814.8,390.4,813.6,390.2,812.4z"/>
<path class="st1" d="M350.3,871.9c0-0.9-0.1-1.9-0.1-2.8C350.3,870,350.3,871,350.3,871.9z"/>
<path class="st1" d="M353,883.9c-0.2-0.6-0.3-1.2-0.5-1.7C352.7,882.8,352.8,883.4,353,883.9z"/>
<path class="st1" d="M351.4,878.9c0-0.6,0-1.2,0.1-1.8C351.4,877.7,351.4,878.3,351.4,878.9z"/>
<path class="st1" d="M359,732.8c0.3-0.2,0.6-0.3,0.8-0.4c-0.2,0.8-0.4,1.7-0.6,2.5C359.1,734.2,359,733.5,359,732.8z"/>
<path class="st1" d="M373.7,678.1c0.1,0.3,0.2,0.6,0.3,0.9c-0.3,0.2-0.5,0.4-0.8,0.6C373.3,679.1,373.5,678.6,373.7,678.1z"/>
<path class="st24" d="M382,736c0.4,0.4,0.7,0.7,1.1,1.1C382.7,736.7,382.3,736.3,382,736z"/>
<path class="st24" d="M383,737c0.3,0.4,0.7,0.7,1,1.1C383.6,737.7,383.3,737.4,383,737z"/>
<path class="st1" d="M358.3,754.9c0.2-0.5,0.3-1,0.5-1.5C358.7,753.9,358.5,754.4,358.3,754.9z"/>
<path class="st23" d="M393,896c-0.2,0.1-0.3,0.3-0.3,0.2C392.6,896.2,392.8,896.1,393,896C393.1,896.1,393,896,393,896z"/>
<path class="st1" d="M879.1,332.9c-0.2-0.1-0.4-0.2-0.2-0.1C878.7,332.6,878.8,332.8,879.1,332.9L879.1,332.9z"/>
<rect x="806.8" y="223.8" class="st26" width="711.2" height="132"/>
<text transform="matrix(1 0 0 1 806.8252 278.4878)"><tspan x="0" y="0" class="st27 st28 st29">Alexander ‘</tspan><tspan x="358.8" y="0" class="st30 st28 st29">LJ</tspan><tspan x="423.6" y="0" class="st27 st28 st29">’ Stewart</tspan></text>
<rect x="859.1" y="438.4" class="st26" width="905.9" height="71.6"/>
<text transform="matrix(1 0 0 1 859.1489 490.2783)" class="st27 st28 st31">Junior Full-Stack Developer</text>
<rect x="921.7" y="515.2" class="st26" width="725.3" height="114"/>
<text transform="matrix(1 0 0 1 921.7246 549.3086)"><tspan x="0" y="0" class="st30 st28 st32">&lt;stack&gt;</tspan><tspan x="159.3" y="0" class="st28 st32"> </tspan><tspan x="169.4" y="0" class="st27 st28 st32">JavaScript MERN</tspan><tspan x="501.6" y="0" class="st28 st32"> </tspan><tspan x="511.8" y="0" class="st30 st28 st32">&lt;/stack&gt;</tspan></text>
</svg>
