<?xml version="1.0" encoding="utf-8"?>
<!-- Generator: Adobe Illustrator 24.0.1, SVG Export Plug-In . SVG Version: 6.00 Build 0)  -->
<svg version="1.1" id="Layer_1" xmlns="http://www.w3.org/2000/svg" xmlns:xlink="http://www.w3.org/1999/xlink" x="0px" y="0px"
	 viewBox="0 0 1569 888" style="enable-background:new 0 0 1569 888;" xml:space="preserve">
<g>
	<path d="M1010.3,889.1c-0.9-124.7-100.5-224.1-224.2-224c-123.5,0.1-222.8,99.5-223.8,224c-3.3,0-6.7,0-10,0
		c0.4-129.9,104.7-234.1,234.3-234c129.2,0.1,233.4,104.4,233.7,234C1017,889.1,1013.6,889.1,1010.3,889.1z"/>
	<path d="M1268.3,889.1c1.4-11.4-1.6-22.1-6-32.3c-14.8-34.3-50.6-55.2-86.4-50.5c-38.7,5-68,33.7-73.4,72
		c-0.5,3.6-0.1,7.2-0.2,10.9c-3.7,0-7.3,0-11,0c1-26.4,9.9-49.7,29.6-67.7c28-25.6,60.8-32.9,96.4-20c34.9,12.7,55.2,38.8,61,75.7
		c0.6,3.9,0.7,8,1,11.9C1275.6,889.1,1272,889.1,1268.3,889.1z"/>
	<path d="M470.3,889.1c-0.2-42.8-33.6-79.7-75.4-83c-45.2-3.6-84,26.5-90.8,70.6c-0.6,4.1-0.5,8.3-0.8,12.4c-3.7,0-7.3,0-11,0
		c1.2-13.7,3.4-27,9.4-39.5c17.6-36.9,56.9-58.5,97.1-53.2c40.3,5.4,72.8,36.2,80.1,76.4c1,5.4,0.9,10.9,1.4,16.4
		C477,889.1,473.6,889.1,470.3,889.1z"/>
	<path d="M1452.3,889.1c1.2-17.9-13.4-35.5-32.1-38.9c-24.4-4.3-46.7,14.1-46.9,38.9c-3.3,0-6.7,0-10,0c-0.1-26.2,20.2-47.7,47-49.6
		c25.3-1.8,48.8,17.7,52.1,43.2c0.3,2.1,0.6,4.3,0.9,6.4C1459.6,889.1,1456,889.1,1452.3,889.1z"/>
	<path d="M198.3,889.1c1.3-17.8-13.3-35.5-32-38.8c-24.3-4.4-46.6,14.1-47,38.8c-3.3,0-6.7,0-10,0c0-26.3,20.2-47.6,47-49.6
		c25.1-1.8,48.4,17.3,52,42.7c0.3,2.3,0.6,4.6,1,6.9C205.6,889.1,202,889.1,198.3,889.1z"/>
	<path d="M1566.3,889.1c1.7-4.7,3.3-9.3,5-14c0,3-0.3,6,0.1,9C1572,888.3,1570.5,890,1566.3,889.1z"/>
	<path d="M1.3,877.1c1.3,4,2.7,8,4,12c-3.4,0.8-4.5-0.5-4.1-4C1.6,882.4,1.3,879.7,1.3,877.1z"/>
	<path d="M786.3,396.1c51.7,0,93.9,42.1,93.8,93.7c0,51.8-42.4,94.2-94.1,94c-51.6-0.2-93.6-42.5-93.6-94.1
		C692.5,438.2,734.7,396.1,786.3,396.1z M786.1,573.4c46.4,0.1,83.8-37.2,84-83.7c0.2-45.3-37.8-83.4-83.3-83.6
		c-46.2-0.2-84.6,38-84.3,83.7C702.8,536.2,739.9,573.3,786.1,573.4z"/>
	<path d="M409.9,605.7c0.4-51.9,42.9-93.8,94.7-93.4c51.9,0.4,93.2,42.7,92.8,95.1c-0.4,51.6-42.7,93-94.8,92.6
		C451.4,699.6,409.5,657,409.9,605.7z M503.7,522.6c-46.4,0-83.5,37.1-83.5,83.4c0,46.3,37.2,83.7,83.3,83.9
		c46.2,0.2,83.9-37.5,83.9-83.9C587.3,559.7,550.1,522.6,503.7,522.6z"/>
	<path d="M1068.6,513c52.2,0.1,93.8,42,93.7,94.3c-0.1,51.4-42.4,93.4-93.8,93.3c-51.7-0.1-93.9-42.4-93.8-94
		C974.7,555,1016.9,513,1068.6,513z M1068.7,690.3c46.3,0,83.6-37.3,83.6-83.5c0-46.1-37.5-83.7-83.6-83.7
		c-46.4-0.1-83.7,37.3-83.7,84C985.1,653.4,1022.2,690.4,1068.7,690.3z"/>
	<path d="M342.5,495c-27.5-0.1-49.9-22.8-49.7-50.2c0.3-27.5,22.9-49.8,50.3-49.6c27.2,0.2,49.5,22.5,49.6,49.8
		C392.9,472.7,370.3,495.2,342.5,495z M382.5,445.2c0.1-21.9-17.6-39.7-39.6-39.9c-21.6-0.1-39.6,17.6-39.7,39.2
		c-0.2,22.4,17.3,40.4,39.3,40.5C364.7,485.2,382.4,467.5,382.5,445.2z"/>
	<path d="M1229.7,396c27.9,0.1,49.8,22.3,49.6,50.5c-0.1,27.2-22.7,49.4-50,49.3c-27.4-0.1-49.9-22.7-49.8-50.1
		C1179.6,418.2,1202.1,396,1229.7,396z M1189.9,445.4c-0.2,22.5,16.9,39.9,39.5,40.1c21.7,0.2,39.6-17.3,39.8-38.9
		c0.2-22-17.3-40.3-39-40.5C1207.8,405.8,1190.2,423,1189.9,445.4z"/>
	<path d="M786.2,312.1c-27.6,0-49.8-22.3-49.8-49.9c0-27.4,22.5-49.9,50-49.9c27.4,0,49.9,22.6,49.8,50
		C836.2,289.9,813.9,312.1,786.2,312.1z M786.7,222.6c-21.8-0.3-40,17.4-40.3,39.1c-0.2,21.5,17.4,39.9,38.8,40.3
		c22.5,0.4,40.8-17.2,41-39.5C826.5,240.8,808.8,223,786.7,222.6z"/>
	<path d="M1383.3,318.2c0,14.5-11.9,26.4-26.4,26.5c-14.6,0.1-26.7-12-26.6-26.8c0-14.5,11.9-26.4,26.4-26.5
		C1371.3,291.3,1383.4,303.4,1383.3,318.2z M1356.9,301.8c-9.3,0-16.6,7.2-16.6,16.3c0,9,7.1,16.1,16.1,16.2
		c9.3,0.1,16.7-6.9,16.8-16.1C1373.4,309.1,1366.2,301.8,1356.9,301.8z"/>
	<path d="M812.4,81.9c0,14.8-12,26.8-26.7,26.6c-14.4-0.2-26.3-12.3-26.3-26.7c0-14.7,12.2-26.7,26.8-26.6
		C800.7,55.4,812.4,67.3,812.4,81.9z M786,98.2c9.3,0,16.4-7.2,16.4-16.4c0-9.1-7.7-16.6-16.6-16.4c-8.7,0.2-16.2,7.7-16.3,16.4
		C769.3,90.8,776.7,98.2,786,98.2z"/>
	<path d="M241.4,318.1c-0.1,14.6-11.7,26.3-26.4,26.4c-14.5,0.1-26.7-12.2-26.6-26.8c0.1-14.4,12.2-26.4,26.5-26.4
		C229.7,291.3,241.5,303.3,241.4,318.1z M214.9,334.2c9.3,0.1,16.5-7,16.5-16.3c0-9.1-7.4-16.6-16.5-16.6c-8.6,0-16.2,7.6-16.4,16.3
		C198.2,326.7,205.6,334.1,214.9,334.2z"/>
</g>
</svg>
